<svg version="1.1" viewBox="0.0 0.0 480.0 192.0" fill="none" stroke="none" stroke-linecap="square" stroke-miterlimit="10" xmlns:xlink="http://www.w3.org/1999/xlink" xmlns="http://www.w3.org/2000/svg"><clipPath id="p.0"><path d="m0 0l480.0 0l0 192.0l-480.0 0l0 -192.0z" clip-rule="nonzero"/></clipPath><g clip-path="url(#p.0)"><path fill="#000000" fill-opacity="0.0" d="m0 0l480.0 0l0 192.0l-480.0 0z" fill-rule="evenodd"/><path fill="#cfe2f3" d="m161.08923 18.236221l157.82678 0l0 46.992126l-157.82678 0z" fill-rule="evenodd"/><path stroke="#000000" stroke-width="1.0" stroke-linejoin="round" stroke-linecap="butt" d="m161.08923 18.236221l157.82678 0l0 46.992126l-157.82678 0z" fill-rule="evenodd"/><path fill="#000000" d="m186.65497 37.096035l-1.296875 0l-0.21875 2.15625l-0.875 0l0.21875 -2.15625l-1.484375 0l-0.21875 2.15625l-0.875 0l0.21875 -2.15625l-1.25 0l0 -0.75l1.328125 0l0.203125 -2.0625l-1.234375 0l0 -0.75l1.3125 0l0.203125 -1.9375l0.859375 0l-0.203125 1.9375l1.5 0l0.203125 -1.9375l0.875 0l-0.203125 1.9375l1.25 0l0 0.75l-1.328125 0l-0.203125 2.0625l1.21875 0l0 0.75zm-2.09375 -0.75l0.21875 -2.0625l-1.5 0l-0.21875 2.0625l1.5 0zm7.5664062 5.3125l-2.890625 0l0 -10.890625l2.890625 0l0 0.8125l-1.90625 0l0 9.25l1.90625 0l0 0.828125zm7.2070312 -2.625q-0.40625 0.15625 -0.828125 0.21875q-0.421875 0.078125 -0.859375 0.078125q-1.390625 0 -2.15625 -0.75q-0.75 -0.765625 -0.75 -2.21875q0 -0.6875 0.21875 -1.25q0.21875 -0.578125 0.609375 -0.984375q0.390625 -0.40625 0.9375 -0.625q0.546875 -0.21875 1.203125 -0.21875q0.453125 0 0.84375 0.0625q0.40625 0.0625 0.78125 0.21875l0 0.96875q-0.390625 -0.203125 -0.78125 -0.28125q-0.390625 -0.09375 -0.8125 -0.09375q-0.40625 0 -0.75 0.15625q-0.34375 0.140625 -0.609375 0.421875q-0.265625 0.28125 -0.421875 0.6875q-0.140625 0.40625 -0.140625 0.90625q0 1.0625 0.515625 1.59375q0.515625 0.53125 1.4375 0.53125q0.40625 0 0.796875 -0.09375q0.390625 -0.09375 0.765625 -0.28125l0 0.953125zm7.3164062 0.21875l-1.34375 0l-1.59375 -2.25l-1.5625 2.25l-1.328125 0l2.28125 -2.953125l-2.171875 -2.9375l1.3125 0l1.546875 2.265625l1.515625 -2.265625l1.25 0l-2.203125 2.953125l2.296875 2.9375zm6.5976562 0l-1.34375 0l-1.59375 -2.25l-1.5625 2.25l-1.328125 0l2.28125 -2.953125l-2.171875 -2.9375l1.3125 0l1.546875 2.265625l1.515625 -2.265625l1.25 0l-2.203125 2.953125l2.296875 2.9375zm3.6601562 -5.984375q0.1875 0 0.34375 0.078125q0.171875 0.0625 0.296875 0.1875q0.125 0.125 0.1875 0.296875q0.078125 0.15625 0.078125 0.328125q0 0.1875 -0.078125 0.359375q-0.0625 0.15625 -0.1875 0.28125q-0.125 0.125 -0.296875 0.203125q-0.15625 0.0625 -0.34375 0.0625q-0.1875 0 -0.34375 -0.0625q-0.15625 -0.078125 -0.28125 -0.203125q-0.125 -0.125 -0.203125 -0.28125q-0.0625 -0.171875 -0.0625 -0.359375q0 -0.171875 0.0625 -0.328125q0.078125 -0.171875 0.203125 -0.296875q0.125 -0.125 0.28125 -0.1875q0.15625 -0.078125 0.34375 -0.078125zm0 4.296875q0.1875 0 0.34375 0.078125q0.171875 0.0625 0.296875 0.1875q0.125 0.125 0.1875 0.296875q0.078125 0.15625 0.078125 0.328125q0 0.1875 -0.078125 0.359375q-0.0625 0.15625 -0.1875 0.28125q-0.125 0.125 -0.296875 0.1875q-0.15625 0.078125 -0.34375 0.078125q-0.1875 0 -0.34375 -0.078125q-0.15625 -0.0625 -0.28125 -0.1875q-0.125 -0.125 -0.203125 -0.28125q-0.0625 -0.171875 -0.0625 -0.359375q0 -0.171875 0.0625 -0.328125q0.078125 -0.171875 0.203125 -0.296875q0.125 -0.125 0.28125 -0.1875q0.15625 -0.078125 0.34375 -0.078125zm6.5976562 -4.296875q0.1875 0 0.34375 0.078125q0.171875 0.0625 0.296875 0.1875q0.125 0.125 0.1875 0.296875q0.078125 0.15625 0.078125 0.328125q0 0.1875 -0.078125 0.359375q-0.0625 0.15625 -0.1875 0.28125q-0.125 0.125 -0.296875 0.203125q-0.15625 0.0625 -0.34375 0.0625q-0.1875 0 -0.34375 -0.0625q-0.15625 -0.078125 -0.28125 -0.203125q-0.125 -0.125 -0.203125 -0.28125q-0.0625 -0.171875 -0.0625 -0.359375q0 -0.171875 0.0625 -0.328125q0.078125 -0.171875 0.203125 -0.296875q0.125 -0.125 0.28125 -0.1875q0.15625 -0.078125 0.34375 -0.078125zm0 4.296875q0.1875 0 0.34375 0.078125q0.171875 0.0625 0.296875 0.1875q0.125 0.125 0.1875 0.296875q0.078125 0.15625 0.078125 0.328125q0 0.1875 -0.078125 0.359375q-0.0625 0.15625 -0.1875 0.28125q-0.125 0.125 -0.296875 0.1875q-0.15625 0.078125 -0.34375 0.078125q-0.1875 0 -0.34375 -0.078125q-0.15625 -0.0625 -0.28125 -0.1875q-0.125 -0.125 -0.203125 -0.28125q-0.0625 -0.171875 -0.0625 -0.359375q0 -0.171875 0.0625 -0.328125q0.078125 -0.171875 0.203125 -0.296875q0.125 -0.125 0.28125 -0.1875q0.15625 -0.078125 0.34375 -0.078125zm9.269531 -1.359375q0 0.734375 -0.203125 1.3125q-0.203125 0.578125 -0.578125 0.984375q-0.375 0.390625 -0.90625 0.609375q-0.53125 0.21875 -1.203125 0.21875q-0.515625 0 -1.0625 -0.09375q-0.546875 -0.109375 -1.078125 -0.328125l0 -7.9375l1.015625 0l0 2.28125l-0.046875 1.09375q0.4375 -0.59375 0.9375 -0.828125q0.515625 -0.25 1.078125 -0.25q0.515625 0 0.890625 0.21875q0.375 0.203125 0.625 0.59375q0.265625 0.375 0.390625 0.921875q0.140625 0.53125 0.140625 1.203125zm-1.046875 0.046875q0 -0.46875 -0.078125 -0.84375q-0.0625 -0.390625 -0.203125 -0.65625q-0.140625 -0.28125 -0.375 -0.4375q-0.234375 -0.15625 -0.546875 -0.15625q-0.1875 0 -0.390625 0.0625q-0.203125 0.0625 -0.421875 0.203125q-0.203125 0.140625 -0.4375 0.375q-0.234375 0.234375 -0.515625 0.59375l0 2.84375q0.296875 0.125 0.609375 0.203125q0.3125 0.0625 0.59375 0.0625q0.359375 0 0.671875 -0.109375q0.328125 -0.125 0.5625 -0.375q0.25 -0.265625 0.390625 -0.6875q0.140625 -0.4375 0.140625 -1.078125zm2.8476562 -2.890625l0.9375 0l0.03125 1.09375q0.515625 -0.625 1.015625 -0.90625q0.515625 -0.28125 1.03125 -0.28125q0.921875 0 1.390625 0.59375q0.46875 0.578125 0.4375 1.75l-1.03125 0q0.015625 -0.765625 -0.234375 -1.109375q-0.234375 -0.359375 -0.703125 -0.359375q-0.203125 0 -0.421875 0.078125q-0.203125 0.0625 -0.421875 0.234375q-0.21875 0.15625 -0.46875 0.40625q-0.25 0.25 -0.53125 0.609375l0 3.78125l-1.03125 0l0 -5.890625zm8.363281 0.84375l-1.734375 0l0 -0.84375l2.765625 0l0 5.046875l1.75 0l0 0.84375l-4.703125 0l0 -0.84375l1.921875 0l0 -4.203125zm0.359375 -3.296875q0.171875 0 0.3125 0.0625q0.15625 0.046875 0.265625 0.171875q0.109375 0.109375 0.171875 0.25q0.0625 0.140625 0.0625 0.3125q0 0.15625 -0.0625 0.3125q-0.0625 0.140625 -0.171875 0.25q-0.109375 0.109375 -0.265625 0.171875q-0.140625 0.0625 -0.3125 0.0625q-0.171875 0 -0.3125 -0.0625q-0.140625 -0.0625 -0.25 -0.171875q-0.109375 -0.109375 -0.171875 -0.25q-0.0625 -0.15625 -0.0625 -0.3125q0 -0.171875 0.0625 -0.3125q0.0625 -0.140625 0.171875 -0.25q0.109375 -0.125 0.25 -0.171875q0.140625 -0.0625 0.3125 -0.0625zm3.9414062 5.53125q0 -0.75 0.203125 -1.328125q0.203125 -0.59375 0.578125 -0.984375q0.390625 -0.40625 0.90625 -0.609375q0.53125 -0.21875 1.1875 -0.21875q0.28125 0 0.546875 0.03125q0.28125 0.03125 0.546875 0.109375l0 -2.46875l1.015625 0l0 8.28125l-0.90625 0l-0.03125 -1.109375q-0.4375 0.609375 -0.9375 0.921875q-0.484375 0.296875 -1.078125 0.296875q-0.5 0 -0.890625 -0.203125q-0.375 -0.21875 -0.640625 -0.59375q-0.25 -0.390625 -0.375 -0.921875q-0.125 -0.546875 -0.125 -1.203125zm1.046875 -0.078125q0 1.078125 0.3125 1.609375q0.3125 0.515625 0.890625 0.515625q0.375 0 0.796875 -0.34375q0.4375 -0.34375 0.921875 -1.03125l0 -2.734375q-0.25 -0.109375 -0.5625 -0.171875q-0.296875 -0.0625 -0.59375 -0.0625q-0.84375 0 -1.3125 0.546875q-0.453125 0.53125 -0.453125 1.671875zm10.082031 -2.15625q0.171875 0.203125 0.25 0.484375q0.09375 0.265625 0.09375 0.578125q0 0.453125 -0.171875 0.84375q-0.15625 0.375 -0.46875 0.640625q-0.296875 0.265625 -0.71875 0.421875q-0.421875 0.140625 -0.9375 0.140625q-0.375 0 -0.703125 -0.078125q-0.3125 -0.078125 -0.5 -0.1875q-0.109375 0.15625 -0.1875 0.3125q-0.078125 0.140625 -0.078125 0.3125q0 0.234375 0.21875 0.375q0.21875 0.140625 0.5625 0.15625l1.546875 0.0625q0.4375 0.015625 0.8125 0.109375q0.375 0.09375 0.640625 0.28125q0.265625 0.1875 0.40625 0.46875q0.15625 0.28125 0.15625 0.640625q0 0.390625 -0.171875 0.734375q-0.171875 0.359375 -0.53125 0.625q-0.34375 0.265625 -0.890625 0.421875q-0.546875 0.171875 -1.296875 0.171875q-0.71875 0 -1.21875 -0.125q-0.5 -0.109375 -0.828125 -0.3125q-0.3125 -0.203125 -0.46875 -0.484375q-0.140625 -0.28125 -0.140625 -0.609375q0 -0.421875 0.203125 -0.75q0.203125 -0.328125 0.609375 -0.625q-0.140625 -0.0625 -0.265625 -0.171875q-0.109375 -0.109375 -0.1875 -0.234375q-0.0625 -0.125 -0.09375 -0.265625q-0.03125 -0.140625 -0.03125 -0.28125q0 -0.375 0.171875 -0.6875q0.1875 -0.3125 0.4375 -0.59375q-0.125 -0.140625 -0.203125 -0.265625q-0.078125 -0.140625 -0.140625 -0.28125q-0.0625 -0.15625 -0.09375 -0.328125q-0.03125 -0.171875 -0.03125 -0.390625q0 -0.453125 0.15625 -0.828125q0.171875 -0.390625 0.46875 -0.65625q0.3125 -0.265625 0.734375 -0.40625q0.421875 -0.15625 0.9375 -0.15625q0.21875 0 0.40625 0.03125q0.203125 0.015625 0.359375 0.0625l2.140625 0l0 0.84375l-0.953125 0zm-3.53125 5.890625q0 0.421875 0.421875 0.609375q0.4375 0.1875 1.21875 0.1875q0.484375 0 0.8125 -0.09375q0.328125 -0.078125 0.53125 -0.21875q0.203125 -0.140625 0.28125 -0.328125q0.09375 -0.1875 0.09375 -0.375q0 -0.359375 -0.296875 -0.53125q-0.28125 -0.171875 -0.890625 -0.203125l-1.53125 -0.046875q-0.1875 0.125 -0.328125 0.25q-0.125 0.125 -0.203125 0.25q-0.0625 0.125 -0.09375 0.25q-0.015625 0.125 -0.015625 0.25zm0.3125 -4.8125q0 0.28125 0.09375 0.515625q0.09375 0.234375 0.25 0.40625q0.171875 0.15625 0.40625 0.25q0.234375 0.09375 0.515625 0.09375q0.296875 0 0.53125 -0.09375q0.25 -0.109375 0.40625 -0.28125q0.15625 -0.1875 0.234375 -0.40625q0.09375 -0.234375 0.09375 -0.484375q0 -0.28125 -0.09375 -0.515625q-0.09375 -0.234375 -0.265625 -0.390625q-0.15625 -0.171875 -0.390625 -0.25q-0.234375 -0.09375 -0.515625 -0.09375q-0.3125 0 -0.546875 0.109375q-0.234375 0.09375 -0.40625 0.265625q-0.15625 0.171875 -0.234375 0.40625q-0.078125 0.234375 -0.078125 0.46875zm10.550781 0.71875q0 0.21875 -0.015625 0.359375q0 0.140625 0 0.28125l-4.140625 0q0 0.890625 0.5 1.375q0.515625 0.484375 1.453125 0.484375q0.265625 0 0.515625 -0.015625q0.265625 -0.015625 0.5 -0.046875q0.25 -0.046875 0.46875 -0.078125q0.21875 -0.046875 0.40625 -0.109375l0 0.84375q-0.421875 0.109375 -0.953125 0.1875q-0.515625 0.078125 -1.078125 0.078125q-0.75 0 -1.296875 -0.203125q-0.546875 -0.21875 -0.90625 -0.59375q-0.34375 -0.390625 -0.515625 -0.953125q-0.15625 -0.578125 -0.15625 -1.296875q0 -0.609375 0.171875 -1.15625q0.1875 -0.5625 0.53125 -0.984375q0.34375 -0.421875 0.828125 -0.65625q0.5 -0.25 1.140625 -0.25q0.609375 0 1.078125 0.1875q0.484375 0.1875 0.8125 0.546875q0.328125 0.359375 0.484375 0.875q0.171875 0.5 0.171875 1.125zm-1.0625 -0.15625q0.015625 -0.390625 -0.078125 -0.703125q-0.09375 -0.328125 -0.296875 -0.5625q-0.1875 -0.234375 -0.484375 -0.359375q-0.28125 -0.140625 -0.671875 -0.140625q-0.328125 0 -0.609375 0.125q-0.28125 0.125 -0.484375 0.359375q-0.1875 0.234375 -0.3125 0.5625q-0.125 0.328125 -0.15625 0.71875l3.09375 0zm6.3320312 5.8125l-2.890625 0l0 -0.828125l1.90625 0l0 -9.25l-1.90625 0l0 -0.8125l2.890625 0l0 10.890625zm13.7578125 -2.40625l0 -4.21875q0 -0.28125 -0.03125 -0.453125q-0.015625 -0.1875 -0.0625 -0.28125q-0.046875 -0.109375 -0.109375 -0.140625q-0.0625 -0.046875 -0.171875 -0.046875q-0.109375 0 -0.21875 0.078125q-0.09375 0.0625 -0.21875 0.21875q-0.109375 0.15625 -0.25 0.421875q-0.125 0.265625 -0.3125 0.640625l0 3.78125l-0.9375 0l0 -4.109375q0 -0.328125 -0.015625 -0.515625q-0.015625 -0.203125 -0.0625 -0.3125q-0.046875 -0.125 -0.125 -0.15625q-0.0625 -0.046875 -0.15625 -0.046875q-0.109375 0 -0.203125 0.0625q-0.09375 0.0625 -0.21875 0.21875q-0.109375 0.140625 -0.25 0.40625q-0.140625 0.265625 -0.328125 0.671875l0 3.78125l-0.9375 0l0 -5.890625l0.78125 0l0.046875 1.125q0.140625 -0.328125 0.28125 -0.5625q0.15625 -0.234375 0.296875 -0.375q0.15625 -0.15625 0.328125 -0.21875q0.171875 -0.0625 0.390625 -0.0625q0.46875 0 0.71875 0.3125q0.25 0.296875 0.25 0.953125q0.140625 -0.296875 0.265625 -0.53125q0.140625 -0.25 0.296875 -0.40625q0.15625 -0.15625 0.34375 -0.234375q0.1875 -0.09375 0.4375 -0.09375q1.109375 0 1.109375 1.703125l0 4.28125l-0.9375 0zm7.5195312 -2.984375q0 0.6875 -0.203125 1.265625q-0.1875 0.5625 -0.546875 0.96875q-0.359375 0.40625 -0.890625 0.640625q-0.515625 0.21875 -1.1875 0.21875q-0.625 0 -1.125 -0.1875q-0.5 -0.203125 -0.859375 -0.578125q-0.34375 -0.390625 -0.53125 -0.953125q-0.171875 -0.5625 -0.171875 -1.296875q0 -0.6875 0.1875 -1.25q0.1875 -0.5625 0.546875 -0.96875q0.375 -0.40625 0.890625 -0.625q0.53125 -0.234375 1.1875 -0.234375q0.625 0 1.125 0.203125q0.515625 0.1875 0.859375 0.5625q0.34375 0.375 0.53125 0.9375q0.1875 0.5625 0.1875 1.296875zm-1.046875 0.046875q0 -0.546875 -0.125 -0.953125q-0.109375 -0.40625 -0.34375 -0.671875q-0.21875 -0.28125 -0.546875 -0.421875q-0.3125 -0.140625 -0.703125 -0.140625q-0.453125 0 -0.78125 0.1875q-0.328125 0.171875 -0.53125 0.46875q-0.203125 0.296875 -0.3125 0.703125q-0.09375 0.390625 -0.09375 0.828125q0 0.546875 0.125 0.953125q0.125 0.40625 0.34375 0.6875q0.21875 0.265625 0.53125 0.40625q0.328125 0.140625 0.71875 0.140625q0.453125 0 0.78125 -0.171875q0.328125 -0.1875 0.53125 -0.484375q0.21875 -0.3125 0.3125 -0.703125q0.09375 -0.390625 0.09375 -0.828125zm2.2226562 0.125q0 -0.75 0.203125 -1.328125q0.203125 -0.59375 0.578125 -0.984375q0.390625 -0.40625 0.90625 -0.609375q0.53125 -0.21875 1.1875 -0.21875q0.28125 0 0.546875 0.03125q0.28125 0.03125 0.546875 0.109375l0 -2.46875l1.015625 0l0 8.28125l-0.90625 0l-0.03125 -1.109375q-0.4375 0.609375 -0.9375 0.921875q-0.484375 0.296875 -1.078125 0.296875q-0.5 0 -0.890625 -0.203125q-0.375 -0.21875 -0.640625 -0.59375q-0.25 -0.390625 -0.375 -0.921875q-0.125 -0.546875 -0.125 -1.203125zm1.046875 -0.078125q0 1.078125 0.3125 1.609375q0.3125 0.515625 0.890625 0.515625q0.375 0 0.796875 -0.34375q0.4375 -0.34375 0.921875 -1.03125l0 -2.734375q-0.25 -0.109375 -0.5625 -0.171875q-0.296875 -0.0625 -0.59375 -0.0625q-0.84375 0 -1.3125 0.546875q-0.453125 0.53125 -0.453125 1.671875z" fill-rule="nonzero"/><path fill="#000000" d="m178.1247 53.252285l0 -0.78125q-0.59375 0.921875 -1.734375 0.921875q-0.75 0 -1.375 -0.40625q-0.625 -0.421875 -0.96875 -1.15625q-0.34375 -0.734375 -0.34375 -1.6875q0 -0.921875 0.3125 -1.6875q0.3125 -0.765625 0.9375 -1.15625q0.625 -0.40625 1.390625 -0.40625q0.5625 0 1.0 0.234375q0.4375 0.234375 0.71875 0.609375l0 -3.078125l1.046875 0l0 8.59375l-0.984375 0zm-3.328125 -3.109375q0 1.203125 0.5 1.796875q0.5 0.578125 1.1875 0.578125q0.6875 0 1.171875 -0.5625q0.484375 -0.5625 0.484375 -1.71875q0 -1.28125 -0.5 -1.875q-0.484375 -0.59375 -1.203125 -0.59375q-0.703125 0 -1.171875 0.578125q-0.46875 0.5625 -0.46875 1.796875zm10.220703 1.109375l1.09375 0.125q-0.25 0.953125 -0.953125 1.484375q-0.703125 0.53125 -1.78125 0.53125q-1.359375 0 -2.171875 -0.84375q-0.796875 -0.84375 -0.796875 -2.359375q0 -1.5625 0.8125 -2.421875q0.8125 -0.875 2.09375 -0.875q1.25 0 2.03125 0.84375q0.796875 0.84375 0.796875 2.390625q0 0.09375 0 0.28125l-4.640625 0q0.0625 1.03125 0.578125 1.578125q0.515625 0.53125 1.296875 0.53125q0.578125 0 0.984375 -0.296875q0.421875 -0.3125 0.65625 -0.96875zm-3.453125 -1.703125l3.46875 0q-0.0625 -0.796875 -0.390625 -1.1875q-0.515625 -0.609375 -1.3125 -0.609375q-0.734375 0 -1.234375 0.484375q-0.484375 0.484375 -0.53125 1.3125zm6.126953 3.703125l0 -5.40625l-0.9375 0l0 -0.8125l0.9375 0l0 -0.671875q0 -0.625 0.109375 -0.921875q0.15625 -0.421875 0.53125 -0.671875q0.390625 -0.25 1.078125 -0.25q0.453125 0 0.984375 0.109375l-0.15625 0.90625q-0.328125 -0.046875 -0.625 -0.046875q-0.484375 0 -0.6875 0.203125q-0.1875 0.203125 -0.1875 0.765625l0 0.578125l1.21875 0l0 0.8125l-1.21875 0l0 5.40625l-1.046875 0zm3.0839844 -7.375l0 -1.21875l1.0625 0l0 1.21875l-1.0625 0zm0 7.375l0 -6.21875l1.0625 0l0 6.21875l-1.0625 0zm2.6660156 0l0 -6.21875l0.9375 0l0 0.875q0.6875 -1.015625 1.984375 -1.015625q0.5625 0 1.03125 0.203125q0.484375 0.203125 0.71875 0.53125q0.234375 0.328125 0.328125 0.765625q0.046875 0.296875 0.046875 1.03125l0 3.828125l-1.046875 0l0 -3.78125q0 -0.65625 -0.125 -0.96875q-0.125 -0.3125 -0.4375 -0.5q-0.3125 -0.203125 -0.734375 -0.203125q-0.671875 0 -1.171875 0.4375q-0.484375 0.421875 -0.484375 1.609375l0 3.40625l-1.046875 0zm6.673828 -7.375l0 -1.21875l1.0625 0l0 1.21875l-1.0625 0zm0 7.375l0 -6.21875l1.0625 0l0 6.21875l-1.0625 0zm4.9628906 -0.9375l0.15625 0.921875q-0.453125 0.09375 -0.796875 0.09375q-0.578125 0 -0.890625 -0.171875q-0.3125 -0.1875 -0.453125 -0.484375q-0.125 -0.296875 -0.125 -1.25l0 -3.578125l-0.765625 0l0 -0.8125l0.765625 0l0 -1.546875l1.046875 -0.625l0 2.171875l1.0625 0l0 0.8125l-1.0625 0l0 3.640625q0 0.453125 0.046875 0.578125q0.0625 0.125 0.1875 0.203125q0.125 0.078125 0.359375 0.078125q0.1875 0 0.46875 -0.03125zm1.0371094 -6.4375l0 -1.21875l1.0625 0l0 1.21875l-1.0625 0zm0 7.375l0 -6.21875l1.0625 0l0 6.21875l-1.0625 0zm2.2753906 -3.109375q0 -1.734375 0.953125 -2.5625q0.796875 -0.6875 1.953125 -0.6875q1.28125 0 2.09375 0.84375q0.828125 0.828125 0.828125 2.3125q0 1.203125 -0.359375 1.890625q-0.359375 0.6875 -1.0625 1.078125q-0.6875 0.375 -1.5 0.375q-1.296875 0 -2.109375 -0.828125q-0.796875 -0.84375 -0.796875 -2.421875zm1.078125 0q0 1.1875 0.515625 1.78125q0.53125 0.59375 1.3125 0.59375q0.796875 0 1.3125 -0.59375q0.515625 -0.59375 0.515625 -1.8125q0 -1.15625 -0.53125 -1.75q-0.515625 -0.59375 -1.296875 -0.59375q-0.78125 0 -1.3125 0.59375q-0.515625 0.578125 -0.515625 1.78125zm5.986328 3.109375l0 -6.21875l0.9375 0l0 0.875q0.6875 -1.015625 1.984375 -1.015625q0.5625 0 1.03125 0.203125q0.484375 0.203125 0.71875 0.53125q0.234375 0.328125 0.328125 0.765625q0.046875 0.296875 0.046875 1.03125l0 3.828125l-1.046875 0l0 -3.78125q0 -0.65625 -0.125 -0.96875q-0.125 -0.3125 -0.4375 -0.5q-0.3125 -0.203125 -0.734375 -0.203125q-0.671875 0 -1.171875 0.4375q-0.484375 0.421875 -0.484375 1.609375l0 3.40625l-1.046875 0zm6.251953 -1.859375l1.03125 -0.15625q0.09375 0.625 0.484375 0.953125q0.40625 0.328125 1.140625 0.328125q0.71875 0 1.0625 -0.28125q0.359375 -0.296875 0.359375 -0.703125q0 -0.359375 -0.3125 -0.5625q-0.21875 -0.140625 -1.078125 -0.359375q-1.15625 -0.296875 -1.609375 -0.5q-0.4375 -0.21875 -0.671875 -0.59375q-0.234375 -0.375 -0.234375 -0.84375q0 -0.40625 0.1875 -0.765625q0.1875 -0.359375 0.515625 -0.59375q0.25 -0.171875 0.671875 -0.296875q0.421875 -0.125 0.921875 -0.125q0.71875 0 1.265625 0.21875q0.5625 0.203125 0.828125 0.5625q0.265625 0.359375 0.359375 0.953125l-1.03125 0.140625q-0.0625 -0.46875 -0.40625 -0.734375q-0.328125 -0.28125 -0.953125 -0.28125q-0.71875 0 -1.03125 0.25q-0.3125 0.234375 -0.3125 0.5625q0 0.203125 0.125 0.359375q0.140625 0.171875 0.40625 0.28125q0.15625 0.0625 0.9375 0.265625q1.125 0.3125 1.5625 0.5q0.4375 0.1875 0.6875 0.546875q0.25 0.359375 0.25 0.90625q0 0.53125 -0.3125 1.0q-0.296875 0.453125 -0.875 0.71875q-0.578125 0.25 -1.3125 0.25q-1.21875 0 -1.859375 -0.5q-0.625 -0.515625 -0.796875 -1.5zm14.662109 0.84375q-0.515625 0.578125 -1.140625 0.875q-0.609375 0.28125 -1.328125 0.28125q-1.3125 0 -2.09375 -0.890625q-0.625 -0.71875 -0.625 -1.625q0 -0.796875 0.515625 -1.4375q0.515625 -0.640625 1.53125 -1.125q-0.578125 -0.671875 -0.78125 -1.078125q-0.1875 -0.421875 -0.1875 -0.8125q0 -0.765625 0.609375 -1.328125q0.609375 -0.578125 1.53125 -0.578125q0.875 0 1.421875 0.546875q0.5625 0.53125 0.5625 1.28125q0 1.234375 -1.609375 2.09375l1.53125 1.96875q0.265625 -0.515625 0.40625 -1.203125l1.109375 0.234375q-0.28125 1.125 -0.765625 1.859375q0.59375 0.78125 1.34375 1.3125l-0.71875 0.84375q-0.640625 -0.421875 -1.3125 -1.21875zm-2.140625 -4.46875q0.6875 -0.40625 0.875 -0.703125q0.203125 -0.3125 0.203125 -0.6875q0 -0.4375 -0.28125 -0.71875q-0.265625 -0.28125 -0.6875 -0.28125q-0.421875 0 -0.71875 0.28125q-0.28125 0.28125 -0.28125 0.671875q0 0.203125 0.109375 0.421875q0.109375 0.21875 0.3125 0.46875l0.46875 0.546875zm1.484375 3.640625l-1.9375 -2.40625q-0.859375 0.515625 -1.15625 0.953125q-0.296875 0.4375 -0.296875 0.859375q0 0.53125 0.40625 1.09375q0.421875 0.5625 1.1875 0.5625q0.46875 0 0.96875 -0.296875q0.515625 -0.296875 0.828125 -0.765625zm11.119141 1.84375l0 -0.78125q-0.59375 0.921875 -1.734375 0.921875q-0.75 0 -1.375 -0.40625q-0.625 -0.421875 -0.96875 -1.15625q-0.34375 -0.734375 -0.34375 -1.6875q0 -0.921875 0.3125 -1.6875q0.3125 -0.765625 0.9375 -1.15625q0.625 -0.40625 1.390625 -0.40625q0.5625 0 1.0 0.234375q0.4375 0.234375 0.71875 0.609375l0 -3.078125l1.046875 0l0 8.59375l-0.984375 0zm-3.328125 -3.109375q0 1.203125 0.5 1.796875q0.5 0.578125 1.1875 0.578125q0.6875 0 1.171875 -0.5625q0.484375 -0.5625 0.484375 -1.71875q0 -1.28125 -0.5 -1.875q-0.484375 -0.59375 -1.203125 -0.59375q-0.703125 0 -1.171875 0.578125q-0.46875 0.5625 -0.46875 1.796875zm10.220703 1.109375l1.09375 0.125q-0.25 0.953125 -0.953125 1.484375q-0.703125 0.53125 -1.78125 0.53125q-1.359375 0 -2.171875 -0.84375q-0.796875 -0.84375 -0.796875 -2.359375q0 -1.5625 0.8125 -2.421875q0.8125 -0.875 2.09375 -0.875q1.25 0 2.03125 0.84375q0.796875 0.84375 0.796875 2.390625q0 0.09375 0 0.28125l-4.640625 0q0.0625 1.03125 0.578125 1.578125q0.515625 0.53125 1.296875 0.53125q0.578125 0 0.984375 -0.296875q0.421875 -0.3125 0.65625 -0.96875zm-3.453125 -1.703125l3.46875 0q-0.0625 -0.796875 -0.390625 -1.1875q-0.515625 -0.609375 -1.3125 -0.609375q-0.734375 0 -1.234375 0.484375q-0.484375 0.484375 -0.53125 1.3125zm9.939453 1.421875l1.03125 0.140625q-0.171875 1.0625 -0.875 1.671875q-0.703125 0.609375 -1.71875 0.609375q-1.28125 0 -2.0625 -0.828125q-0.765625 -0.84375 -0.765625 -2.40625q0 -1.0 0.328125 -1.75q0.34375 -0.765625 1.015625 -1.140625q0.6875 -0.375 1.5 -0.375q1.0 0 1.640625 0.515625q0.65625 0.5 0.84375 1.453125l-1.03125 0.15625q-0.140625 -0.625 -0.515625 -0.9375q-0.375 -0.328125 -0.90625 -0.328125q-0.796875 0 -1.296875 0.578125q-0.5 0.5625 -0.5 1.796875q0 1.265625 0.484375 1.828125q0.484375 0.5625 1.25 0.5625q0.625 0 1.03125 -0.375q0.421875 -0.375 0.546875 -1.171875zm1.90625 2.28125l0 -8.59375l1.0625 0l0 8.59375l-1.0625 0zm6.7597656 -0.765625q-0.59375 0.5 -1.140625 0.703125q-0.53125 0.203125 -1.15625 0.203125q-1.03125 0 -1.578125 -0.5q-0.546875 -0.5 -0.546875 -1.28125q0 -0.453125 0.203125 -0.828125q0.203125 -0.390625 0.546875 -0.609375q0.34375 -0.234375 0.765625 -0.34375q0.296875 -0.09375 0.9375 -0.171875q1.265625 -0.140625 1.875 -0.359375q0 -0.21875 0 -0.265625q0 -0.65625 -0.296875 -0.921875q-0.40625 -0.34375 -1.203125 -0.34375q-0.734375 0 -1.09375 0.265625q-0.359375 0.25 -0.53125 0.90625l-1.03125 -0.140625q0.140625 -0.65625 0.46875 -1.0625q0.328125 -0.40625 0.9375 -0.625q0.609375 -0.21875 1.40625 -0.21875q0.796875 0 1.296875 0.1875q0.5 0.1875 0.734375 0.46875q0.234375 0.28125 0.328125 0.71875q0.046875 0.265625 0.046875 0.96875l0 1.40625q0 1.46875 0.0625 1.859375q0.078125 0.390625 0.28125 0.75l-1.109375 0q-0.15625 -0.328125 -0.203125 -0.765625zm-0.09375 -2.359375q-0.578125 0.234375 -1.71875 0.40625q-0.65625 0.09375 -0.921875 0.21875q-0.265625 0.109375 -0.421875 0.328125q-0.140625 0.21875 -0.140625 0.5q0 0.421875 0.3125 0.703125q0.328125 0.28125 0.9375 0.28125q0.609375 0 1.078125 -0.265625q0.484375 -0.265625 0.703125 -0.734375q0.171875 -0.359375 0.171875 -1.046875l0 -0.390625zm2.6894531 3.125l0 -6.21875l0.953125 0l0 0.9375q0.359375 -0.65625 0.65625 -0.859375q0.3125 -0.21875 0.6875 -0.21875q0.53125 0 1.078125 0.328125l-0.359375 0.984375q-0.390625 -0.234375 -0.765625 -0.234375q-0.359375 0 -0.640625 0.21875q-0.265625 0.203125 -0.375 0.578125q-0.1875 0.5625 -0.1875 1.21875l0 3.265625l-1.046875 0zm8.074219 -0.765625q-0.59375 0.5 -1.140625 0.703125q-0.53125 0.203125 -1.15625 0.203125q-1.03125 0 -1.578125 -0.5q-0.546875 -0.5 -0.546875 -1.28125q0 -0.453125 0.203125 -0.828125q0.203125 -0.390625 0.546875 -0.609375q0.34375 -0.234375 0.765625 -0.34375q0.296875 -0.09375 0.9375 -0.171875q1.265625 -0.140625 1.875 -0.359375q0 -0.21875 0 -0.265625q0 -0.65625 -0.296875 -0.921875q-0.40625 -0.34375 -1.203125 -0.34375q-0.734375 0 -1.09375 0.265625q-0.359375 0.25 -0.53125 0.90625l-1.03125 -0.140625q0.140625 -0.65625 0.46875 -1.0625q0.328125 -0.40625 0.9375 -0.625q0.609375 -0.21875 1.40625 -0.21875q0.796875 0 1.296875 0.1875q0.5 0.1875 0.734375 0.46875q0.234375 0.28125 0.328125 0.71875q0.046875 0.265625 0.046875 0.96875l0 1.40625q0 1.46875 0.0625 1.859375q0.078125 0.390625 0.28125 0.75l-1.109375 0q-0.15625 -0.328125 -0.203125 -0.765625zm-0.09375 -2.359375q-0.578125 0.234375 -1.71875 0.40625q-0.65625 0.09375 -0.921875 0.21875q-0.265625 0.109375 -0.421875 0.328125q-0.140625 0.21875 -0.140625 0.5q0 0.421875 0.3125 0.703125q0.328125 0.28125 0.9375 0.28125q0.609375 0 1.078125 -0.265625q0.484375 -0.265625 0.703125 -0.734375q0.171875 -0.359375 0.171875 -1.046875l0 -0.390625zm5.001953 2.1875l0.15625 0.921875q-0.453125 0.09375 -0.796875 0.09375q-0.578125 0 -0.890625 -0.171875q-0.3125 -0.1875 -0.453125 -0.484375q-0.125 -0.296875 -0.125 -1.25l0 -3.578125l-0.765625 0l0 -0.8125l0.765625 0l0 -1.546875l1.046875 -0.625l0 2.171875l1.0625 0l0 0.8125l-1.0625 0l0 3.640625q0 0.453125 0.046875 0.578125q0.0625 0.125 0.1875 0.203125q0.125 0.078125 0.359375 0.078125q0.1875 0 0.46875 -0.03125zm1.0371094 -6.4375l0 -1.21875l1.0625 0l0 1.21875l-1.0625 0zm0 7.375l0 -6.21875l1.0625 0l0 6.21875l-1.0625 0zm2.2753906 -3.109375q0 -1.734375 0.953125 -2.5625q0.796875 -0.6875 1.953125 -0.6875q1.28125 0 2.09375 0.84375q0.828125 0.828125 0.828125 2.3125q0 1.203125 -0.359375 1.890625q-0.359375 0.6875 -1.0625 1.078125q-0.6875 0.375 -1.5 0.375q-1.296875 0 -2.109375 -0.828125q-0.796875 -0.84375 -0.796875 -2.421875zm1.078125 0q0 1.1875 0.515625 1.78125q0.53125 0.59375 1.3125 0.59375q0.796875 0 1.3125 -0.59375q0.515625 -0.59375 0.515625 -1.8125q0 -1.15625 -0.53125 -1.75q-0.515625 -0.59375 -1.296875 -0.59375q-0.78125 0 -1.3125 0.59375q-0.515625 0.578125 -0.515625 1.78125zm5.986328 3.109375l0 -6.21875l0.9375 0l0 0.875q0.6875 -1.015625 1.984375 -1.015625q0.5625 0 1.03125 0.203125q0.484375 0.203125 0.71875 0.53125q0.234375 0.328125 0.328125 0.765625q0.046875 0.296875 0.046875 1.03125l0 3.828125l-1.046875 0l0 -3.78125q0 -0.65625 -0.125 -0.96875q-0.125 -0.3125 -0.4375 -0.5q-0.3125 -0.203125 -0.734375 -0.203125q-0.671875 0 -1.171875 0.4375q-0.484375 0.421875 -0.484375 1.609375l0 3.40625l-1.046875 0zm6.251953 -1.859375l1.03125 -0.15625q0.09375 0.625 0.484375 0.953125q0.40625 0.328125 1.140625 0.328125q0.71875 0 1.0625 -0.28125q0.359375 -0.296875 0.359375 -0.703125q0 -0.359375 -0.3125 -0.5625q-0.21875 -0.140625 -1.078125 -0.359375q-1.15625 -0.296875 -1.609375 -0.5q-0.4375 -0.21875 -0.671875 -0.59375q-0.234375 -0.375 -0.234375 -0.84375q0 -0.40625 0.1875 -0.765625q0.1875 -0.359375 0.515625 -0.59375q0.25 -0.171875 0.671875 -0.296875q0.421875 -0.125 0.921875 -0.125q0.71875 0 1.265625 0.21875q0.5625 0.203125 0.828125 0.5625q0.265625 0.359375 0.359375 0.953125l-1.03125 0.140625q-0.0625 -0.46875 -0.40625 -0.734375q-0.328125 -0.28125 -0.953125 -0.28125q-0.71875 0 -1.03125 0.25q-0.3125 0.234375 -0.3125 0.5625q0 0.203125 0.125 0.359375q0.140625 0.171875 0.40625 0.28125q0.15625 0.0625 0.9375 0.265625q1.125 0.3125 1.5625 0.5q0.4375 0.1875 0.6875 0.546875q0.25 0.359375 0.25 0.90625q0 0.53125 -0.3125 1.0q-0.296875 0.453125 -0.875 0.71875q-0.578125 0.25 -1.3125 0.25q-1.21875 0 -1.859375 -0.5q-0.625 -0.515625 -0.796875 -1.5z" fill-rule="nonzero"/><path fill="#d9ead3" d="m105.54855 144.61417l94.897644 0l0 41.606308l-94.897644 0z" fill-rule="evenodd"/><path stroke="#000000" stroke-width="1.0" stroke-linejoin="round" stroke-linecap="butt" d="m105.54855 144.61417l94.897644 0l0 41.606308l-94.897644 0z" fill-rule="evenodd"/><path fill="#000000" d="m117.58038 169.93732l0 -8.59375l3.8125 0q1.15625 0 1.75 0.234375q0.59375 0.234375 0.953125 0.828125q0.359375 0.578125 0.359375 1.28125q0 0.921875 -0.59375 1.546875q-0.59375 0.625 -1.828125 0.796875q0.453125 0.21875 0.6875 0.421875q0.5 0.453125 0.9375 1.140625l1.5 2.34375l-1.4375 0l-1.125 -1.78125q-0.5 -0.78125 -0.828125 -1.1875q-0.3125 -0.40625 -0.578125 -0.5625q-0.25 -0.171875 -0.515625 -0.25q-0.1875 -0.03125 -0.625 -0.03125l-1.328125 0l0 3.8125l-1.140625 0zm1.140625 -4.796875l2.453125 0q0.765625 0 1.203125 -0.15625q0.453125 -0.171875 0.671875 -0.515625q0.234375 -0.359375 0.234375 -0.78125q0 -0.609375 -0.453125 -1.0q-0.4375 -0.390625 -1.390625 -0.390625l-2.71875 0l0 2.84375zm11.462891 4.796875l0 -0.921875q-0.734375 1.0625 -1.984375 1.0625q-0.546875 0 -1.03125 -0.203125q-0.46875 -0.21875 -0.703125 -0.53125q-0.234375 -0.328125 -0.328125 -0.796875q-0.0625 -0.296875 -0.0625 -0.984375l0 -3.84375l1.0625 0l0 3.453125q0 0.8125 0.0625 1.109375q0.09375 0.40625 0.40625 0.65625q0.328125 0.234375 0.8125 0.234375q0.46875 0 0.875 -0.234375q0.421875 -0.25 0.59375 -0.671875q0.1875 -0.421875 0.1875 -1.21875l0 -3.328125l1.046875 0l0 6.21875l-0.9375 0zm2.1738281 -1.859375l1.03125 -0.15625q0.09375 0.625 0.484375 0.953125q0.40625 0.328125 1.140625 0.328125q0.71875 0 1.0625 -0.28125q0.359375 -0.296875 0.359375 -0.703125q0 -0.359375 -0.3125 -0.5625q-0.21875 -0.140625 -1.078125 -0.359375q-1.15625 -0.296875 -1.609375 -0.5q-0.4375 -0.21875 -0.671875 -0.59375q-0.234375 -0.375 -0.234375 -0.84375q0 -0.40625 0.1875 -0.765625q0.1875 -0.359375 0.515625 -0.59375q0.25 -0.171875 0.671875 -0.296875q0.421875 -0.125 0.921875 -0.125q0.71875 0 1.265625 0.21875q0.5625 0.203125 0.828125 0.5625q0.265625 0.359375 0.359375 0.953125l-1.03125 0.140625q-0.0625 -0.46875 -0.40625 -0.734375q-0.328125 -0.28125 -0.953125 -0.28125q-0.71875 0 -1.03125 0.25q-0.3125 0.234375 -0.3125 0.5625q0 0.203125 0.125 0.359375q0.140625 0.171875 0.40625 0.28125q0.15625 0.0625 0.9375 0.265625q1.125 0.3125 1.5625 0.5q0.4375 0.1875 0.6875 0.546875q0.25 0.359375 0.25 0.90625q0 0.53125 -0.3125 1.0q-0.296875 0.453125 -0.875 0.71875q-0.578125 0.25 -1.3125 0.25q-1.21875 0 -1.859375 -0.5q-0.625 -0.515625 -0.796875 -1.5zm8.71875 0.921875l0.15625 0.921875q-0.453125 0.09375 -0.796875 0.09375q-0.578125 0 -0.890625 -0.171875q-0.3125 -0.1875 -0.453125 -0.484375q-0.125 -0.296875 -0.125 -1.25l0 -3.578125l-0.765625 0l0 -0.8125l0.765625 0l0 -1.546875l1.046875 -0.625l0 2.171875l1.0625 0l0 0.8125l-1.0625 0l0 3.640625q0 0.453125 0.046875 0.578125q0.0625 0.125 0.1875 0.203125q0.125 0.078125 0.359375 0.078125q0.1875 0 0.46875 -0.03125zm5.3398438 0.9375l-0.984375 0l0 -8.59375l1.0625 0l0 3.0625q0.671875 -0.828125 1.703125 -0.828125q0.578125 0 1.078125 0.234375q0.515625 0.21875 0.84375 0.640625q0.34375 0.421875 0.53125 1.015625q0.1875 0.59375 0.1875 1.265625q0 1.59375 -0.796875 2.46875q-0.796875 0.875 -1.890625 0.875q-1.109375 0 -1.734375 -0.921875l0 0.78125zm-0.015625 -3.15625q0 1.109375 0.3125 1.609375q0.5 0.8125 1.34375 0.8125q0.6875 0 1.1875 -0.59375q0.515625 -0.59375 0.515625 -1.796875q0 -1.21875 -0.484375 -1.796875q-0.484375 -0.578125 -1.171875 -0.578125q-0.6875 0 -1.203125 0.609375q-0.5 0.59375 -0.5 1.734375zm5.720703 -4.21875l0 -1.21875l1.0625 0l0 1.21875l-1.0625 0zm0 7.375l0 -6.21875l1.0625 0l0 6.21875l-1.0625 0zm2.6660156 0l0 -6.21875l0.9375 0l0 0.875q0.6875 -1.015625 1.984375 -1.015625q0.5625 0 1.03125 0.203125q0.484375 0.203125 0.71875 0.53125q0.234375 0.328125 0.328125 0.765625q0.046875 0.296875 0.046875 1.03125l0 3.828125l-1.046875 0l0 -3.78125q0 -0.65625 -0.125 -0.96875q-0.125 -0.3125 -0.4375 -0.5q-0.3125 -0.203125 -0.734375 -0.203125q-0.671875 0 -1.171875 0.4375q-0.484375 0.421875 -0.484375 1.609375l0 3.40625l-1.046875 0zm10.705078 0l0 -0.78125q-0.59375 0.921875 -1.734375 0.921875q-0.75 0 -1.375 -0.40625q-0.625 -0.421875 -0.96875 -1.15625q-0.34375 -0.734375 -0.34375 -1.6875q0 -0.921875 0.3125 -1.6875q0.3125 -0.765625 0.9375 -1.15625q0.625 -0.40625 1.390625 -0.40625q0.5625 0 1.0 0.234375q0.4375 0.234375 0.71875 0.609375l0 -3.078125l1.046875 0l0 8.59375l-0.984375 0zm-3.328125 -3.109375q0 1.203125 0.5 1.796875q0.5 0.578125 1.1875 0.578125q0.6875 0 1.171875 -0.5625q0.484375 -0.5625 0.484375 -1.71875q0 -1.28125 -0.5 -1.875q-0.484375 -0.59375 -1.203125 -0.59375q-0.703125 0 -1.171875 0.578125q-0.46875 0.5625 -0.46875 1.796875zm5.970703 -4.265625l0 -1.21875l1.0625 0l0 1.21875l-1.0625 0zm0 7.375l0 -6.21875l1.0625 0l0 6.21875l-1.0625 0zm2.6660156 0l0 -6.21875l0.9375 0l0 0.875q0.6875 -1.015625 1.984375 -1.015625q0.5625 0 1.03125 0.203125q0.484375 0.203125 0.71875 0.53125q0.234375 0.328125 0.328125 0.765625q0.046875 0.296875 0.046875 1.03125l0 3.828125l-1.046875 0l0 -3.78125q0 -0.65625 -0.125 -0.96875q-0.125 -0.3125 -0.4375 -0.5q-0.3125 -0.203125 -0.734375 -0.203125q-0.671875 0 -1.171875 0.4375q-0.484375 0.421875 -0.484375 1.609375l0 3.40625l-1.046875 0zm6.470703 0.515625l1.03125 0.15625q0.0625 0.46875 0.359375 0.6875q0.390625 0.296875 1.0625 0.296875q0.734375 0 1.125 -0.296875q0.40625 -0.296875 0.546875 -0.8125q0.09375 -0.328125 0.078125 -1.359375q-0.6875 0.8125 -1.71875 0.8125q-1.28125 0 -1.984375 -0.921875q-0.703125 -0.9375 -0.703125 -2.21875q0 -0.890625 0.3125 -1.640625q0.328125 -0.765625 0.9375 -1.171875q0.609375 -0.40625 1.4375 -0.40625q1.109375 0 1.828125 0.890625l0 -0.75l0.96875 0l0 5.375q0 1.453125 -0.296875 2.0625q-0.296875 0.609375 -0.9375 0.953125q-0.640625 0.359375 -1.578125 0.359375q-1.109375 0 -1.796875 -0.5q-0.6875 -0.5 -0.671875 -1.515625zm0.875 -3.734375q0 1.21875 0.484375 1.78125q0.484375 0.5625 1.21875 0.5625q0.734375 0 1.21875 -0.5625q0.5 -0.5625 0.5 -1.75q0 -1.140625 -0.515625 -1.71875q-0.5 -0.578125 -1.21875 -0.578125q-0.703125 0 -1.203125 0.578125q-0.484375 0.5625 -0.484375 1.6875zm5.580078 1.359375l1.03125 -0.15625q0.09375 0.625 0.484375 0.953125q0.40625 0.328125 1.140625 0.328125q0.71875 0 1.0625 -0.28125q0.359375 -0.296875 0.359375 -0.703125q0 -0.359375 -0.3125 -0.5625q-0.21875 -0.140625 -1.078125 -0.359375q-1.15625 -0.296875 -1.609375 -0.5q-0.4375 -0.21875 -0.671875 -0.59375q-0.234375 -0.375 -0.234375 -0.84375q0 -0.40625 0.1875 -0.765625q0.1875 -0.359375 0.515625 -0.59375q0.25 -0.171875 0.671875 -0.296875q0.421875 -0.125 0.921875 -0.125q0.71875 0 1.265625 0.21875q0.5625 0.203125 0.828125 0.5625q0.265625 0.359375 0.359375 0.953125l-1.03125 0.140625q-0.0625 -0.46875 -0.40625 -0.734375q-0.328125 -0.28125 -0.953125 -0.28125q-0.71875 0 -1.03125 0.25q-0.3125 0.234375 -0.3125 0.5625q0 0.203125 0.125 0.359375q0.140625 0.171875 0.40625 0.28125q0.15625 0.0625 0.9375 0.265625q1.125 0.3125 1.5625 0.5q0.4375 0.1875 0.6875 0.546875q0.25 0.359375 0.25 0.90625q0 0.53125 -0.3125 1.0q-0.296875 0.453125 -0.875 0.71875q-0.578125 0.25 -1.3125 0.25q-1.21875 0 -1.859375 -0.5q-0.625 -0.515625 -0.796875 -1.5z" fill-rule="nonzero"/><path fill="#d9ead3" d="m279.55905 144.69292l94.897644 0l0 41.606293l-94.897644 0z" fill-rule="evenodd"/><path stroke="#000000" stroke-width="1.0" stroke-linejoin="round" stroke-linecap="butt" d="m279.55905 144.69292l94.897644 0l0 41.606293l-94.897644 0z" fill-rule="evenodd"/><path fill="#000000" d="m298.71198 167.00044l1.125 0.296875q-0.359375 1.390625 -1.28125 2.125q-0.921875 0.734375 -2.265625 0.734375q-1.390625 0 -2.265625 -0.5625q-0.875 -0.5625 -1.328125 -1.625q-0.453125 -1.078125 -0.453125 -2.3125q0 -1.34375 0.515625 -2.34375q0.515625 -1.0 1.453125 -1.515625q0.953125 -0.515625 2.09375 -0.515625q1.28125 0 2.15625 0.65625q0.890625 0.65625 1.234375 1.84375l-1.125 0.265625q-0.296875 -0.9375 -0.875 -1.359375q-0.5625 -0.4375 -1.421875 -0.4375q-0.984375 0 -1.65625 0.484375q-0.65625 0.46875 -0.9375 1.265625q-0.265625 0.796875 -0.265625 1.65625q0 1.09375 0.3125 1.90625q0.328125 0.8125 1.0 1.21875q0.671875 0.40625 1.46875 0.40625q0.953125 0 1.609375 -0.546875q0.671875 -0.546875 0.90625 -1.640625zm4.6035156 1.625l0 -2.359375l-2.328125 0l0 -0.984375l2.328125 0l0 -2.328125l1.0 0l0 2.328125l2.34375 0l0 0.984375l-2.34375 0l0 2.359375l-1.0 0zm7.0078125 0l0 -2.359375l-2.328125 0l0 -0.984375l2.328125 0l0 -2.328125l1.0 0l0 2.328125l2.34375 0l0 0.984375l-2.34375 0l0 2.359375l-1.0 0zm9.107422 1.390625l-0.984375 0l0 -8.59375l1.0625 0l0 3.0625q0.671875 -0.828125 1.703125 -0.828125q0.578125 0 1.078125 0.234375q0.515625 0.21875 0.84375 0.640625q0.34375 0.421875 0.53125 1.015625q0.1875 0.59375 0.1875 1.265625q0 1.59375 -0.796875 2.46875q-0.796875 0.875 -1.890625 0.875q-1.109375 0 -1.734375 -0.921875l0 0.78125zm-0.015625 -3.15625q0 1.109375 0.3125 1.609375q0.5 0.8125 1.34375 0.8125q0.6875 0 1.1875 -0.59375q0.515625 -0.59375 0.515625 -1.796875q0 -1.21875 -0.484375 -1.796875q-0.484375 -0.578125 -1.171875 -0.578125q-0.6875 0 -1.203125 0.609375q-0.5 0.59375 -0.5 1.734375zm5.720703 -4.21875l0 -1.21875l1.0625 0l0 1.21875l-1.0625 0zm0 7.375l0 -6.21875l1.0625 0l0 6.21875l-1.0625 0zm2.6660156 0l0 -6.21875l0.9375 0l0 0.875q0.6875 -1.015625 1.984375 -1.015625q0.5625 0 1.03125 0.203125q0.484375 0.203125 0.71875 0.53125q0.234375 0.328125 0.328125 0.765625q0.046875 0.296875 0.046875 1.03125l0 3.828125l-1.046875 0l0 -3.78125q0 -0.65625 -0.125 -0.96875q-0.125 -0.3125 -0.4375 -0.5q-0.3125 -0.203125 -0.734375 -0.203125q-0.671875 0 -1.171875 0.4375q-0.484375 0.421875 -0.484375 1.609375l0 3.40625l-1.046875 0zm10.705078 0l0 -0.78125q-0.59375 0.921875 -1.734375 0.921875q-0.75 0 -1.375 -0.40625q-0.625 -0.421875 -0.96875 -1.15625q-0.34375 -0.734375 -0.34375 -1.6875q0 -0.921875 0.3125 -1.6875q0.3125 -0.765625 0.9375 -1.15625q0.625 -0.40625 1.390625 -0.40625q0.5625 0 1.0 0.234375q0.4375 0.234375 0.71875 0.609375l0 -3.078125l1.046875 0l0 8.59375l-0.984375 0zm-3.328125 -3.109375q0 1.203125 0.5 1.796875q0.5 0.578125 1.1875 0.578125q0.6875 0 1.171875 -0.5625q0.484375 -0.5625 0.484375 -1.71875q0 -1.28125 -0.5 -1.875q-0.484375 -0.59375 -1.203125 -0.59375q-0.703125 0 -1.171875 0.578125q-0.46875 0.5625 -0.46875 1.796875zm5.970703 -4.265625l0 -1.21875l1.0625 0l0 1.21875l-1.0625 0zm0 7.375l0 -6.21875l1.0625 0l0 6.21875l-1.0625 0zm2.6660156 0l0 -6.21875l0.9375 0l0 0.875q0.6875 -1.015625 1.984375 -1.015625q0.5625 0 1.03125 0.203125q0.484375 0.203125 0.71875 0.53125q0.234375 0.328125 0.328125 0.765625q0.046875 0.296875 0.046875 1.03125l0 3.828125l-1.046875 0l0 -3.78125q0 -0.65625 -0.125 -0.96875q-0.125 -0.3125 -0.4375 -0.5q-0.3125 -0.203125 -0.734375 -0.203125q-0.671875 0 -1.171875 0.4375q-0.484375 0.421875 -0.484375 1.609375l0 3.40625l-1.046875 0zm6.470703 0.515625l1.03125 0.15625q0.0625 0.46875 0.359375 0.6875q0.390625 0.296875 1.0625 0.296875q0.734375 0 1.125 -0.296875q0.40625 -0.296875 0.546875 -0.8125q0.09375 -0.328125 0.078125 -1.359375q-0.6875 0.8125 -1.71875 0.8125q-1.28125 0 -1.984375 -0.921875q-0.703125 -0.9375 -0.703125 -2.21875q0 -0.890625 0.3125 -1.640625q0.328125 -0.765625 0.9375 -1.171875q0.609375 -0.40625 1.4375 -0.40625q1.109375 0 1.828125 0.890625l0 -0.75l0.96875 0l0 5.375q0 1.453125 -0.296875 2.0625q-0.296875 0.609375 -0.9375 0.953125q-0.640625 0.359375 -1.578125 0.359375q-1.109375 0 -1.796875 -0.5q-0.6875 -0.5 -0.671875 -1.515625zm0.875 -3.734375q0 1.21875 0.484375 1.78125q0.484375 0.5625 1.21875 0.5625q0.734375 0 1.21875 -0.5625q0.5 -0.5625 0.5 -1.75q0 -1.140625 -0.515625 -1.71875q-0.5 -0.578125 -1.21875 -0.578125q-0.703125 0 -1.203125 0.578125q-0.484375 0.5625 -0.484375 1.6875zm5.580078 1.359375l1.03125 -0.15625q0.09375 0.625 0.484375 0.953125q0.40625 0.328125 1.140625 0.328125q0.71875 0 1.0625 -0.28125q0.359375 -0.296875 0.359375 -0.703125q0 -0.359375 -0.3125 -0.5625q-0.21875 -0.140625 -1.078125 -0.359375q-1.15625 -0.296875 -1.609375 -0.5q-0.4375 -0.21875 -0.671875 -0.59375q-0.234375 -0.375 -0.234375 -0.84375q0 -0.40625 0.1875 -0.765625q0.1875 -0.359375 0.515625 -0.59375q0.25 -0.171875 0.671875 -0.296875q0.421875 -0.125 0.921875 -0.125q0.71875 0 1.265625 0.21875q0.5625 0.203125 0.828125 0.5625q0.265625 0.359375 0.359375 0.953125l-1.03125 0.140625q-0.0625 -0.46875 -0.40625 -0.734375q-0.328125 -0.28125 -0.953125 -0.28125q-0.71875 0 -1.03125 0.25q-0.3125 0.234375 -0.3125 0.5625q0 0.203125 0.125 0.359375q0.140625 0.171875 0.40625 0.28125q0.15625 0.0625 0.9375 0.265625q1.125 0.3125 1.5625 0.5q0.4375 0.1875 0.6875 0.546875q0.25 0.359375 0.25 0.90625q0 0.53125 -0.3125 1.0q-0.296875 0.453125 -0.875 0.71875q-0.578125 0.25 -1.3125 0.25q-1.21875 0 -1.859375 -0.5q-0.625 -0.515625 -0.796875 -1.5z" fill-rule="nonzero"/><path fill="#000000" fill-opacity="0.0" d="m0 142.77953l48.377953 0l0 45.259842l-48.377953 0z" fill-rule="evenodd"/><path fill="#000000" d="m9.84375 162.01953l0 -7.625l3.375 0q1.015625 0 1.546875 0.203125q0.53125 0.203125 0.84375 0.734375q0.328125 0.515625 0.328125 1.140625q0 0.8125 -0.53125 1.375q-0.515625 0.546875 -1.625 0.703125q0.40625 0.1875 0.609375 0.375q0.453125 0.40625 0.84375 1.015625l1.328125 2.078125l-1.265625 0l-1.015625 -1.59375q-0.4375 -0.6875 -0.734375 -1.046875q-0.28125 -0.359375 -0.515625 -0.5q-0.21875 -0.15625 -0.453125 -0.203125q-0.171875 -0.046875 -0.5625 -0.046875l-1.171875 0l0 3.390625l-1.0 0zm1.0 -4.265625l2.171875 0q0.6875 0 1.078125 -0.140625q0.390625 -0.140625 0.59375 -0.453125q0.203125 -0.3125 0.203125 -0.6875q0 -0.546875 -0.390625 -0.890625q-0.390625 -0.34375 -1.234375 -0.34375l-2.421875 0l0 2.515625zm10.179977 4.265625l0 -0.8125q-0.65625 0.9375 -1.75 0.9375q-0.5 0 -0.921875 -0.1875q-0.421875 -0.1875 -0.625 -0.46875q-0.203125 -0.28125 -0.296875 -0.703125q-0.046875 -0.265625 -0.046875 -0.875l0 -3.421875l0.9375 0l0 3.0625q0 0.734375 0.046875 1.0q0.09375 0.359375 0.375 0.578125q0.296875 0.203125 0.703125 0.203125q0.421875 0 0.796875 -0.203125q0.375 -0.21875 0.515625 -0.59375q0.15625 -0.375 0.15625 -1.078125l0 -2.96875l0.9375 0l0 5.53125l-0.828125 0zm1.9264984 -1.65625l0.921875 -0.140625q0.078125 0.5625 0.4375 0.859375q0.359375 0.296875 1.0 0.296875q0.640625 0 0.953125 -0.265625q0.3125 -0.265625 0.3125 -0.625q0 -0.3125 -0.28125 -0.5q-0.1875 -0.125 -0.953125 -0.3125q-1.03125 -0.265625 -1.4375 -0.453125q-0.390625 -0.1875 -0.59375 -0.515625q-0.203125 -0.34375 -0.203125 -0.75q0 -0.359375 0.171875 -0.671875q0.171875 -0.328125 0.453125 -0.53125q0.21875 -0.15625 0.59375 -0.265625q0.390625 -0.125 0.8125 -0.125q0.65625 0 1.140625 0.1875q0.5 0.1875 0.734375 0.515625q0.234375 0.3125 0.3125 0.859375l-0.90625 0.125q-0.0625 -0.4375 -0.375 -0.671875q-0.296875 -0.234375 -0.828125 -0.234375q-0.65625 0 -0.9375 0.21875q-0.265625 0.203125 -0.265625 0.484375q0 0.1875 0.109375 0.328125q0.125 0.15625 0.359375 0.25q0.140625 0.0625 0.828125 0.25q1.0 0.265625 1.390625 0.4375q0.390625 0.15625 0.609375 0.484375q0.234375 0.3125 0.234375 0.796875q0 0.46875 -0.28125 0.890625q-0.265625 0.40625 -0.78125 0.640625q-0.515625 0.21875 -1.171875 0.21875q-1.078125 0 -1.640625 -0.4375q-0.5625 -0.453125 -0.71875 -1.34375zm7.75 0.8125l0.125 0.828125q-0.390625 0.09375 -0.703125 0.09375q-0.5 0 -0.78125 -0.15625q-0.28125 -0.171875 -0.40625 -0.4375q-0.109375 -0.265625 -0.109375 -1.109375l0 -3.171875l-0.6875 0l0 -0.734375l0.6875 0l0 -1.359375l0.9375 -0.5625l0 1.921875l0.9375 0l0 0.734375l-0.9375 0l0 3.234375q0 0.390625 0.046875 0.515625q0.046875 0.109375 0.15625 0.1875q0.109375 0.0625 0.328125 0.0625q0.15625 0 0.40625 -0.046875z" fill-rule="nonzero"/><path fill="#000000" d="m13.3125 172.78828l0.921875 0.125q-0.15625 0.953125 -0.78125 1.5q-0.625 0.53125 -1.53125 0.53125q-1.125 0 -1.8125 -0.734375q-0.6875 -0.75 -0.6875 -2.125q0 -0.90625 0.296875 -1.578125q0.296875 -0.671875 0.890625 -1.0q0.609375 -0.34375 1.328125 -0.34375q0.890625 0 1.46875 0.46875q0.578125 0.453125 0.734375 1.28125l-0.90625 0.140625q-0.140625 -0.546875 -0.46875 -0.828125q-0.328125 -0.28125 -0.796875 -0.28125q-0.703125 0 -1.15625 0.515625q-0.4375 0.5 -0.4375 1.59375q0 1.109375 0.421875 1.625q0.4375 0.5 1.125 0.5q0.546875 0 0.90625 -0.34375q0.375 -0.34375 0.484375 -1.046875zm1.375 -0.734375q0 -1.53125 0.84375 -2.265625q0.71875 -0.625 1.734375 -0.625q1.140625 0 1.859375 0.75q0.734375 0.75 0.734375 2.0625q0 1.0625 -0.328125 1.6875q-0.3125 0.609375 -0.921875 0.953125q-0.609375 0.328125 -1.34375 0.328125q-1.15625 0 -1.875 -0.734375q-0.703125 -0.75 -0.703125 -2.15625zm0.953125 0q0 1.0625 0.46875 1.59375q0.46875 0.53125 1.15625 0.53125q0.703125 0 1.15625 -0.53125q0.46875 -0.53125 0.46875 -1.625q0 -1.015625 -0.46875 -1.546875q-0.453125 -0.53125 -1.15625 -0.53125q-0.6875 0 -1.15625 0.53125q-0.46875 0.515625 -0.46875 1.578125zm8.895248 2.765625l0 -0.703125q-0.515625 0.828125 -1.546875 0.828125q-0.65625 0 -1.21875 -0.359375q-0.546875 -0.375 -0.859375 -1.015625q-0.296875 -0.65625 -0.296875 -1.5q0 -0.828125 0.28125 -1.5q0.28125 -0.6875 0.828125 -1.046875q0.546875 -0.359375 1.234375 -0.359375q0.5 0 0.890625 0.21875q0.390625 0.203125 0.625 0.546875l0 -2.734375l0.9375 0l0 7.625l-0.875 0zm-2.953125 -2.75q0 1.046875 0.4375 1.578125q0.453125 0.53125 1.0625 0.53125q0.609375 0 1.03125 -0.5q0.4375 -0.515625 0.4375 -1.53125q0 -1.140625 -0.4375 -1.671875q-0.4375 -0.53125 -1.078125 -0.53125q-0.609375 0 -1.03125 0.515625q-0.421875 0.5 -0.421875 1.609375zm9.082748 0.96875l0.96875 0.125q-0.234375 0.84375 -0.859375 1.3125q-0.609375 0.46875 -1.578125 0.46875q-1.203125 0 -1.921875 -0.75q-0.703125 -0.75 -0.703125 -2.09375q0 -1.390625 0.71875 -2.15625q0.71875 -0.78125 1.859375 -0.78125q1.109375 0 1.8125 0.765625q0.703125 0.75 0.703125 2.125q0 0.078125 0 0.234375l-4.125 0q0.046875 0.921875 0.515625 1.40625q0.46875 0.484375 1.15625 0.484375q0.515625 0 0.875 -0.265625q0.359375 -0.28125 0.578125 -0.875zm-3.078125 -1.515625l3.09375 0q-0.0625 -0.6875 -0.359375 -1.046875q-0.453125 -0.53125 -1.15625 -0.53125q-0.640625 0 -1.09375 0.4375q-0.4375 0.421875 -0.484375 1.140625z" fill-rule="nonzero"/><path fill="#000000" fill-opacity="0.0" d="m48.377953 165.40945l57.16535 0" fill-rule="evenodd"/><path stroke="#000000" stroke-width="1.0" stroke-linejoin="round" stroke-linecap="butt" d="m51.805042 165.40945l50.311184 0" fill-rule="evenodd"/><path fill="#000000" stroke="#000000" stroke-width="1.0" stroke-linecap="butt" d="m51.80504 165.40945l1.1245842 -1.124588l-3.0897675 1.124588l3.0897675 1.1245728z" fill-rule="evenodd"/><path fill="#000000" stroke="#000000" stroke-width="1.0" stroke-linecap="butt" d="m102.11622 165.40945l-1.1245804 1.1245728l3.0897675 -1.1245728l-3.0897675 -1.124588z" fill-rule="evenodd"/><path fill="#000000" fill-opacity="0.0" d="m45.007874 116.937004l60.53543 0l0 48.47245l-60.53543 0z" fill-rule="evenodd"/><path fill="#000000" d="m63.479694 134.69138l1.0624962 -0.09375q0.078125 0.65625 0.359375 1.0625q0.28125 0.40625 0.859375 0.671875q0.59375 0.25 1.328125 0.25q0.640625 0 1.140625 -0.1875q0.5 -0.203125 0.734375 -0.53125q0.25 -0.34375 0.25 -0.734375q0 -0.40625 -0.234375 -0.703125q-0.234375 -0.3125 -0.765625 -0.515625q-0.359375 -0.140625 -1.546875 -0.421875q-1.171875 -0.28125 -1.640625 -0.53125q-0.625 -0.328125 -0.921875 -0.796875q-0.2968712 -0.484375 -0.2968712 -1.078125q0 -0.640625 0.3593712 -1.203125q0.375 -0.578125 1.078125 -0.859375q0.71875 -0.296875 1.578125 -0.296875q0.953125 0 1.6875 0.3125q0.734375 0.296875 1.125 0.90625q0.390625 0.59375 0.421875 1.34375l-1.09375 0.078125q-0.09375 -0.8125 -0.609375 -1.21875q-0.5 -0.421875 -1.484375 -0.421875q-1.03125 0 -1.5 0.375q-0.46875 0.375 -0.46875 0.90625q0 0.46875 0.328125 0.765625q0.328125 0.296875 1.703125 0.609375q1.390625 0.3125 1.90625 0.546875q0.75 0.359375 1.109375 0.890625q0.359375 0.515625 0.359375 1.21875q0 0.6875 -0.390625 1.296875q-0.390625 0.59375 -1.125 0.9375q-0.734375 0.328125 -1.65625 0.328125q-1.171875 0 -1.96875 -0.328125q-0.78125 -0.34375 -1.2343712 -1.03125q-0.4375 -0.6875 -0.453125 -1.546875zm12.316402 2.0q-0.59375 0.5 -1.140625 0.703125q-0.53125 0.203125 -1.15625 0.203125q-1.03125 0 -1.578125 -0.5q-0.546875 -0.5 -0.546875 -1.28125q0 -0.453125 0.203125 -0.828125q0.203125 -0.390625 0.546875 -0.609375q0.34375 -0.234375 0.765625 -0.34375q0.296875 -0.09375 0.9375 -0.171875q1.265625 -0.140625 1.875 -0.359375q0 -0.21875 0 -0.265625q0 -0.65625 -0.296875 -0.921875q-0.40625 -0.34375 -1.203125 -0.34375q-0.734375 0 -1.09375 0.265625q-0.359375 0.25 -0.53125 0.90625l-1.03125 -0.140625q0.140625 -0.65625 0.46875 -1.0625q0.328125 -0.40625 0.9375 -0.625q0.609375 -0.21875 1.40625 -0.21875q0.796875 0 1.296875 0.1875q0.5 0.1875 0.734375 0.46875q0.234375 0.28125 0.328125 0.71875q0.046875 0.265625 0.046875 0.96875l0 1.40625q0 1.46875 0.0625 1.859375q0.078125 0.390625 0.28125 0.75l-1.109375 0q-0.15625 -0.328125 -0.203125 -0.765625zm-0.09375 -2.359375q-0.578125 0.234375 -1.71875 0.40625q-0.65625 0.09375 -0.921875 0.21875q-0.265625 0.109375 -0.421875 0.328125q-0.140625 0.21875 -0.140625 0.5q0 0.421875 0.3125 0.703125q0.328125 0.28125 0.9375 0.28125q0.609375 0 1.078125 -0.265625q0.484375 -0.265625 0.703125 -0.734375q0.171875 -0.359375 0.171875 -1.046875l0 -0.390625zm2.9550781 3.125l0 -5.40625l-0.9375 0l0 -0.8125l0.9375 0l0 -0.671875q0 -0.625 0.109375 -0.921875q0.15625 -0.421875 0.53125 -0.671875q0.390625 -0.25 1.078125 -0.25q0.453125 0 0.984375 0.109375l-0.15625 0.90625q-0.328125 -0.046875 -0.625 -0.046875q-0.484375 0 -0.6875 0.203125q-0.1875 0.203125 -0.1875 0.765625l0 0.578125l1.21875 0l0 0.8125l-1.21875 0l0 5.40625l-1.046875 0zm7.3339844 -2.0l1.09375 0.125q-0.25 0.953125 -0.953125 1.484375q-0.703125 0.53125 -1.78125 0.53125q-1.359375 0 -2.171875 -0.84375q-0.796875 -0.84375 -0.796875 -2.359375q0 -1.5625 0.8125 -2.421875q0.8125 -0.875 2.09375 -0.875q1.25 0 2.03125 0.84375q0.796875 0.84375 0.796875 2.390625q0 0.09375 0 0.28125l-4.640625 0q0.0625 1.03125 0.578125 1.578125q0.515625 0.53125 1.296875 0.53125q0.578125 0 0.984375 -0.296875q0.421875 -0.3125 0.65625 -0.96875zm-3.453125 -1.703125l3.46875 0q-0.0625 -0.796875 -0.390625 -1.1875q-0.515625 -0.609375 -1.3125 -0.609375q-0.734375 0 -1.234375 0.484375q-0.484375 0.484375 -0.53125 1.3125z" fill-rule="nonzero"/><path fill="#000000" d="m62.58907 151.85701l3.2968712 -8.59375l1.21875 0l3.515625 8.59375l-1.28125 0l-1.015625 -2.609375l-3.578125 0l-0.9531212 2.609375l-1.203125 0zm2.4843712 -3.53125l2.90625 0l-0.890625 -2.375q-0.421875 -1.078125 -0.609375 -1.78125q-0.171875 0.828125 -0.46875 1.640625l-0.9375 2.515625zm6.4570312 3.53125l0 -8.59375l3.25 0q0.84375 0 1.296875 0.078125q0.640625 0.109375 1.0625 0.40625q0.4375 0.296875 0.6875 0.828125q0.265625 0.53125 0.265625 1.171875q0 1.09375 -0.703125 1.859375q-0.6875 0.75 -2.515625 0.75l-2.203125 0l0 3.5l-1.140625 0zm1.140625 -4.5l2.21875 0q1.109375 0 1.5625 -0.40625q0.46875 -0.421875 0.46875 -1.171875q0 -0.53125 -0.28125 -0.90625q-0.265625 -0.390625 -0.703125 -0.515625q-0.296875 -0.078125 -1.0625 -0.078125l-2.203125 0l0 3.078125zm7.0664062 4.5l0 -8.59375l1.125 0l0 8.59375l-1.125 0zm2.5839844 -1.859375l1.03125 -0.15625q0.09375 0.625 0.484375 0.953125q0.40625 0.328125 1.140625 0.328125q0.71875 0 1.0625 -0.28125q0.359375 -0.296875 0.359375 -0.703125q0 -0.359375 -0.3125 -0.5625q-0.21875 -0.140625 -1.078125 -0.359375q-1.15625 -0.296875 -1.609375 -0.5q-0.4375 -0.21875 -0.671875 -0.59375q-0.234375 -0.375 -0.234375 -0.84375q0 -0.40625 0.1875 -0.765625q0.1875 -0.359375 0.515625 -0.59375q0.25 -0.171875 0.671875 -0.296875q0.421875 -0.125 0.921875 -0.125q0.71875 0 1.265625 0.21875q0.5625 0.203125 0.828125 0.5625q0.265625 0.359375 0.359375 0.953125l-1.03125 0.140625q-0.0625 -0.46875 -0.40625 -0.734375q-0.328125 -0.28125 -0.953125 -0.28125q-0.71875 0 -1.03125 0.25q-0.3125 0.234375 -0.3125 0.5625q0 0.203125 0.125 0.359375q0.140625 0.171875 0.40625 0.28125q0.15625 0.0625 0.9375 0.265625q1.125 0.3125 1.5625 0.5q0.4375 0.1875 0.6875 0.546875q0.25 0.359375 0.25 0.90625q0 0.53125 -0.3125 1.0q-0.296875 0.453125 -0.875 0.71875q-0.578125 0.25 -1.3125 0.25q-1.21875 0 -1.859375 -0.5q-0.625 -0.515625 -0.796875 -1.5z" fill-rule="nonzero"/><path fill="#000000" fill-opacity="0.0" d="m431.62204 142.85826l48.37796 0l0 45.259842l-48.37796 0z" fill-rule="evenodd"/><path fill="#000000" d="m446.88766 159.42639l1.015625 0.25q-0.328125 1.25 -1.15625 1.90625q-0.8125 0.640625 -2.015625 0.640625q-1.234375 0 -2.0 -0.5q-0.765625 -0.5 -1.171875 -1.453125q-0.40625 -0.953125 -0.40625 -2.046875q0 -1.1875 0.453125 -2.078125q0.453125 -0.890625 1.296875 -1.34375q0.84375 -0.46875 1.84375 -0.46875q1.15625 0 1.9375 0.59375q0.78125 0.578125 1.078125 1.640625l-0.984375 0.234375q-0.265625 -0.84375 -0.78125 -1.21875q-0.5 -0.375 -1.265625 -0.375q-0.875 0 -1.46875 0.421875q-0.59375 0.421875 -0.828125 1.140625q-0.234375 0.703125 -0.234375 1.453125q0 0.96875 0.28125 1.703125q0.28125 0.71875 0.875 1.078125q0.59375 0.359375 1.296875 0.359375q0.84375 0 1.4375 -0.484375q0.59375 -0.5 0.796875 -1.453125zm4.1018677 1.4375l0 -2.09375l-2.078125 0l0 -0.875l2.078125 0l0 -2.078125l0.875 0l0 2.078125l2.078125 0l0 0.875l-2.078125 0l0 2.09375l-0.875 0zm6.2230835 0l0 -2.09375l-2.078125 0l0 -0.875l2.078125 0l0 -2.078125l0.875 0l0 2.078125l2.078125 0l0 0.875l-2.078125 0l0 2.09375l-0.875 0z" fill-rule="nonzero"/><path fill="#000000" d="m444.93454 172.86702l0.921875 0.125q-0.15625 0.953125 -0.78125 1.5q-0.625 0.53125 -1.53125 0.53125q-1.125 0 -1.8125 -0.734375q-0.6875 -0.75 -0.6875 -2.125q0 -0.90625 0.296875 -1.578125q0.296875 -0.671875 0.890625 -1.0q0.609375 -0.34375 1.328125 -0.34375q0.890625 0 1.46875 0.46875q0.578125 0.453125 0.734375 1.28125l-0.90625 0.140625q-0.140625 -0.546875 -0.46875 -0.828125q-0.328125 -0.28125 -0.796875 -0.28125q-0.703125 0 -1.15625 0.515625q-0.4375 0.5 -0.4375 1.59375q0 1.109375 0.421875 1.625q0.4375 0.5 1.125 0.5q0.546875 0 0.90625 -0.34375q0.375 -0.34375 0.484375 -1.046875zm1.375 -0.734375q0 -1.53125 0.84375 -2.265625q0.71875 -0.625 1.734375 -0.625q1.140625 0 1.859375 0.75q0.734375 0.75 0.734375 2.0625q0 1.0625 -0.328125 1.6875q-0.3125 0.609375 -0.921875 0.953125q-0.609375 0.328125 -1.34375 0.328125q-1.15625 0 -1.875 -0.734375q-0.703125 -0.75 -0.703125 -2.15625zm0.953125 0q0 1.0625 0.46875 1.59375q0.46875 0.53125 1.15625 0.53125q0.703125 0 1.15625 -0.53125q0.46875 -0.53125 0.46875 -1.625q0 -1.015625 -0.46875 -1.546875q-0.453125 -0.53125 -1.15625 -0.53125q-0.6875 0 -1.15625 0.53125q-0.46875 0.515625 -0.46875 1.578125zm8.895264 2.765625l0 -0.703125q-0.515625 0.828125 -1.546875 0.828125q-0.65625 0 -1.21875 -0.359375q-0.546875 -0.375 -0.859375 -1.015625q-0.296875 -0.65625 -0.296875 -1.5q0 -0.828125 0.28125 -1.5q0.28125 -0.6875 0.828125 -1.046875q0.546875 -0.359375 1.234375 -0.359375q0.5 0 0.890625 0.21875q0.390625 0.203125 0.625 0.546875l0 -2.734375l0.9375 0l0 7.625l-0.875 0zm-2.953125 -2.75q0 1.046875 0.4375 1.578125q0.453125 0.53125 1.0625 0.53125q0.609375 0 1.03125 -0.5q0.4375 -0.515625 0.4375 -1.53125q0 -1.140625 -0.4375 -1.671875q-0.4375 -0.53125 -1.078125 -0.53125q-0.609375 0 -1.03125 0.515625q-0.421875 0.5 -0.421875 1.609375zm9.082733 0.96875l0.96875 0.125q-0.234375 0.84375 -0.859375 1.3125q-0.609375 0.46875 -1.578125 0.46875q-1.203125 0 -1.921875 -0.75q-0.703125 -0.75 -0.703125 -2.09375q0 -1.390625 0.71875 -2.15625q0.71875 -0.78125 1.859375 -0.78125q1.109375 0 1.8125 0.765625q0.703125 0.75 0.703125 2.125q0 0.078125 0 0.234375l-4.125 0q0.046875 0.921875 0.515625 1.40625q0.46875 0.484375 1.15625 0.484375q0.515625 0 0.875 -0.265625q0.359375 -0.28125 0.578125 -0.875zm-3.078125 -1.515625l3.09375 0q-0.0625 -0.6875 -0.359375 -1.046875q-0.453125 -0.53125 -1.15625 -0.53125q-0.640625 0 -1.09375 0.4375q-0.4375 0.421875 -0.484375 1.140625z" fill-rule="nonzero"/><path fill="#000000" fill-opacity="0.0" d="m374.4567 165.49606l57.165344 0" fill-rule="evenodd"/><path stroke="#000000" stroke-width="1.0" stroke-linejoin="round" stroke-linecap="butt" d="m377.8838 165.49606l50.311188 0" fill-rule="evenodd"/><path fill="#000000" stroke="#000000" stroke-width="1.0" stroke-linecap="butt" d="m377.8838 165.49606l1.1245728 -1.124588l-3.0897522 1.124588l3.0897522 1.124588z" fill-rule="evenodd"/><path fill="#000000" stroke="#000000" stroke-width="1.0" stroke-linecap="butt" d="m428.19495 165.49606l-1.1245728 1.124588l3.0897827 -1.124588l-3.0897827 -1.124588z" fill-rule="evenodd"/><path fill="#000000" fill-opacity="0.0" d="m240.00262 65.22835l0 39.708725l-86.99213 0l0 39.692856" fill-rule="evenodd"/><path stroke="#000000" stroke-width="1.0" stroke-linejoin="round" stroke-linecap="butt" d="m240.00262 65.22835l0 39.708725l-86.99213 0l0 36.265762" fill-rule="evenodd"/><path fill="#000000" stroke="#000000" stroke-width="1.0" stroke-linecap="butt" d="m153.0105 141.20284l-1.124588 -1.124588l1.124588 3.0897675l1.124588 -3.0897675z" fill-rule="evenodd"/><path fill="#000000" fill-opacity="0.0" d="m240.00262 65.22835l0 39.732285l86.99213 0l0 39.732285" fill-rule="evenodd"/><path stroke="#000000" stroke-width="1.0" stroke-linejoin="round" stroke-linecap="butt" d="m240.00262 65.22835l0 39.732285l86.99213 0l0 36.30519" fill-rule="evenodd"/><path fill="#000000" stroke="#000000" stroke-width="1.0" stroke-linecap="butt" d="m326.99475 141.26582l-1.1245728 -1.1245728l1.1245728 3.0897675l1.1245728 -3.0897675z" fill-rule="evenodd"/><path fill="#000000" fill-opacity="0.0" d="m161.08923 65.22835l79.40158 0l0 48.472443l-79.40158 0z" fill-rule="evenodd"/><path fill="#000000" d="m199.0416 85.748344l0 -8.59375l1.71875 0l2.03125 6.078125q0.28125 0.859375 0.40625 1.28125q0.140625 -0.46875 0.453125 -1.375l2.0625 -5.984375l1.53125 0l0 8.59375l-1.09375 0l0 -7.1875l-2.5 7.1875l-1.03125 0l-2.484375 -7.3125l0 7.3125l-1.09375 0zm13.964844 -0.765625q-0.59375 0.5 -1.140625 0.703125q-0.53125 0.203125 -1.15625 0.203125q-1.03125 0 -1.578125 -0.5q-0.546875 -0.5 -0.546875 -1.28125q0 -0.453125 0.203125 -0.828125q0.203125 -0.390625 0.546875 -0.609375q0.34375 -0.234375 0.765625 -0.34375q0.296875 -0.09375 0.9375 -0.171875q1.265625 -0.140625 1.875 -0.359375q0 -0.21875 0 -0.265625q0 -0.65625 -0.296875 -0.921875q-0.40625 -0.34375 -1.203125 -0.34375q-0.734375 0 -1.09375 0.265625q-0.359375 0.25 -0.53125 0.90625l-1.03125 -0.140625q0.140625 -0.65625 0.46875 -1.0625q0.328125 -0.40625 0.9375 -0.625q0.609375 -0.21875 1.40625 -0.21875q0.796875 0 1.296875 0.1875q0.5 0.1875 0.734375 0.46875q0.234375 0.28125 0.328125 0.71875q0.046875 0.265625 0.046875 0.96875l0 1.40625q0 1.46875 0.0625 1.859375q0.078125 0.390625 0.28125 0.75l-1.109375 0q-0.15625 -0.328125 -0.203125 -0.765625zm-0.09375 -2.359375q-0.578125 0.234375 -1.71875 0.40625q-0.65625 0.09375 -0.921875 0.21875q-0.265625 0.109375 -0.421875 0.328125q-0.140625 0.21875 -0.140625 0.5q0 0.421875 0.3125 0.703125q0.328125 0.28125 0.9375 0.28125q0.609375 0 1.078125 -0.265625q0.484375 -0.265625 0.703125 -0.734375q0.171875 -0.359375 0.171875 -1.046875l0 -0.390625zm6.767578 0.84375l1.03125 0.140625q-0.171875 1.0625 -0.875 1.671875q-0.703125 0.609375 -1.71875 0.609375q-1.28125 0 -2.0625 -0.828125q-0.765625 -0.84375 -0.765625 -2.40625q0 -1.0 0.328125 -1.75q0.34375 -0.765625 1.015625 -1.140625q0.6875 -0.375 1.5 -0.375q1.0 0 1.640625 0.515625q0.65625 0.5 0.84375 1.453125l-1.03125 0.15625q-0.140625 -0.625 -0.515625 -0.9375q-0.375 -0.328125 -0.90625 -0.328125q-0.796875 0 -1.296875 0.578125q-0.5 0.5625 -0.5 1.796875q0 1.265625 0.484375 1.828125q0.484375 0.5625 1.25 0.5625q0.625 0 1.03125 -0.375q0.421875 -0.375 0.546875 -1.171875zm1.921875 2.28125l0 -6.21875l0.953125 0l0 0.9375q0.359375 -0.65625 0.65625 -0.859375q0.3125 -0.21875 0.6875 -0.21875q0.53125 0 1.078125 0.328125l-0.359375 0.984375q-0.390625 -0.234375 -0.765625 -0.234375q-0.359375 0 -0.640625 0.21875q-0.265625 0.203125 -0.375 0.578125q-0.1875 0.5625 -0.1875 1.21875l0 3.265625l-1.046875 0zm3.6210938 -3.109375q0 -1.734375 0.953125 -2.5625q0.796875 -0.6875 1.953125 -0.6875q1.28125 0 2.09375 0.84375q0.828125 0.828125 0.828125 2.3125q0 1.203125 -0.359375 1.890625q-0.359375 0.6875 -1.0625 1.078125q-0.6875 0.375 -1.5 0.375q-1.296875 0 -2.109375 -0.828125q-0.796875 -0.84375 -0.796875 -2.421875zm1.078125 0q0 1.1875 0.515625 1.78125q0.53125 0.59375 1.3125 0.59375q0.796875 0 1.3125 -0.59375q0.515625 -0.59375 0.515625 -1.8125q0 -1.15625 -0.53125 -1.75q-0.515625 -0.59375 -1.296875 -0.59375q-0.78125 0 -1.3125 0.59375q-0.515625 0.578125 -0.515625 1.78125z" fill-rule="nonzero"/><path fill="#000000" d="m181.8287 98.148346l1.09375 0.125q-0.25 0.953125 -0.953125 1.484375q-0.703125 0.53125 -1.78125 0.53125q-1.359375 0 -2.171875 -0.84375q-0.796875 -0.84375 -0.796875 -2.359375q0 -1.5625 0.8125 -2.421875q0.8125 -0.875 2.09375 -0.875q1.25 0 2.03125 0.84375q0.796875 0.84375 0.796875 2.390625q0 0.09375 0 0.28125l-4.640625 0q0.0625 1.03125 0.578125 1.578125q0.515625 0.53125 1.296875 0.53125q0.578125 0 0.984375 -0.296875q0.421875 -0.3125 0.65625 -0.96875zm-3.453125 -1.703125l3.46875 0q-0.0625 -0.796875 -0.390625 -1.1875q-0.515625 -0.609375 -1.3125 -0.609375q-0.734375 0 -1.234375 0.484375q-0.484375 0.484375 -0.53125 1.3125zm5.173828 3.703125l2.265625 -3.234375l-2.09375 -2.984375l1.3125 0l0.953125 1.453125q0.265625 0.421875 0.4375 0.703125q0.25 -0.390625 0.46875 -0.6875l1.046875 -1.46875l1.265625 0l-2.15625 2.921875l2.3125 3.296875l-1.28125 0l-1.28125 -1.9375l-0.34375 -0.515625l-1.640625 2.453125l-1.265625 0zm6.703125 2.390625l0 -8.609375l0.953125 0l0 0.796875q0.34375 -0.46875 0.765625 -0.703125q0.4375 -0.234375 1.046875 -0.234375q0.796875 0 1.40625 0.40625q0.609375 0.40625 0.90625 1.15625q0.3125 0.75 0.3125 1.640625q0 0.953125 -0.34375 1.71875q-0.328125 0.765625 -0.984375 1.171875q-0.65625 0.40625 -1.375 0.40625q-0.53125 0 -0.953125 -0.21875q-0.421875 -0.234375 -0.6875 -0.5625l0 3.03125l-1.046875 0zm0.953125 -5.46875q0 1.203125 0.484375 1.78125q0.484375 0.5625 1.171875 0.5625q0.703125 0 1.203125 -0.59375q0.5 -0.59375 0.5 -1.84375q0 -1.1875 -0.484375 -1.765625q-0.484375 -0.59375 -1.171875 -0.59375q-0.671875 0 -1.1875 0.625q-0.515625 0.625 -0.515625 1.828125zm9.783203 2.3125q-0.59375 0.5 -1.140625 0.703125q-0.53125 0.203125 -1.15625 0.203125q-1.03125 0 -1.578125 -0.5q-0.546875 -0.5 -0.546875 -1.28125q0 -0.453125 0.203125 -0.828125q0.203125 -0.390625 0.546875 -0.609375q0.34375 -0.234375 0.765625 -0.34375q0.296875 -0.09375 0.9375 -0.171875q1.265625 -0.140625 1.875 -0.359375q0 -0.21875 0 -0.265625q0 -0.65625 -0.296875 -0.921875q-0.40625 -0.34375 -1.203125 -0.34375q-0.734375 0 -1.09375 0.265625q-0.359375 0.25 -0.53125 0.90625l-1.03125 -0.140625q0.140625 -0.65625 0.46875 -1.0625q0.328125 -0.40625 0.9375 -0.625q0.609375 -0.21875 1.40625 -0.21875q0.796875 0 1.296875 0.1875q0.5 0.1875 0.734375 0.46875q0.234375 0.28125 0.328125 0.71875q0.046875 0.265625 0.046875 0.96875l0 1.40625q0 1.46875 0.0625 1.859375q0.078125 0.390625 0.28125 0.75l-1.109375 0q-0.15625 -0.328125 -0.203125 -0.765625zm-0.09375 -2.359375q-0.578125 0.234375 -1.71875 0.40625q-0.65625 0.09375 -0.921875 0.21875q-0.265625 0.109375 -0.421875 0.328125q-0.140625 0.21875 -0.140625 0.5q0 0.421875 0.3125 0.703125q0.328125 0.28125 0.9375 0.28125q0.609375 0 1.078125 -0.265625q0.484375 -0.265625 0.703125 -0.734375q0.171875 -0.359375 0.171875 -1.046875l0 -0.390625zm2.7050781 3.125l0 -6.21875l0.9375 0l0 0.875q0.6875 -1.015625 1.984375 -1.015625q0.5625 0 1.03125 0.203125q0.484375 0.203125 0.71875 0.53125q0.234375 0.328125 0.328125 0.765625q0.046875 0.296875 0.046875 1.03125l0 3.828125l-1.046875 0l0 -3.78125q0 -0.65625 -0.125 -0.96875q-0.125 -0.3125 -0.4375 -0.5q-0.3125 -0.203125 -0.734375 -0.203125q-0.671875 0 -1.171875 0.4375q-0.484375 0.421875 -0.484375 1.609375l0 3.40625l-1.046875 0zm6.251953 -1.859375l1.03125 -0.15625q0.09375 0.625 0.484375 0.953125q0.40625 0.328125 1.140625 0.328125q0.71875 0 1.0625 -0.28125q0.359375 -0.296875 0.359375 -0.703125q0 -0.359375 -0.3125 -0.5625q-0.21875 -0.140625 -1.078125 -0.359375q-1.15625 -0.296875 -1.609375 -0.5q-0.4375 -0.21875 -0.671875 -0.59375q-0.234375 -0.375 -0.234375 -0.84375q0 -0.40625 0.1875 -0.765625q0.1875 -0.359375 0.515625 -0.59375q0.25 -0.171875 0.671875 -0.296875q0.421875 -0.125 0.921875 -0.125q0.71875 0 1.265625 0.21875q0.5625 0.203125 0.828125 0.5625q0.265625 0.359375 0.359375 0.953125l-1.03125 0.140625q-0.0625 -0.46875 -0.40625 -0.734375q-0.328125 -0.28125 -0.953125 -0.28125q-0.71875 0 -1.03125 0.25q-0.3125 0.234375 -0.3125 0.5625q0 0.203125 0.125 0.359375q0.140625 0.171875 0.40625 0.28125q0.15625 0.0625 0.9375 0.265625q1.125 0.3125 1.5625 0.5q0.4375 0.1875 0.6875 0.546875q0.25 0.359375 0.25 0.90625q0 0.53125 -0.3125 1.0q-0.296875 0.453125 -0.875 0.71875q-0.578125 0.25 -1.3125 0.25q-1.21875 0 -1.859375 -0.5q-0.625 -0.515625 -0.796875 -1.5zm6.421875 -5.515625l0 -1.21875l1.0625 0l0 1.21875l-1.0625 0zm0 7.375l0 -6.21875l1.0625 0l0 6.21875l-1.0625 0zm2.2753906 -3.109375q0 -1.734375 0.953125 -2.5625q0.796875 -0.6875 1.953125 -0.6875q1.28125 0 2.09375 0.84375q0.828125 0.828125 0.828125 2.3125q0 1.203125 -0.359375 1.890625q-0.359375 0.6875 -1.0625 1.078125q-0.6875 0.375 -1.5 0.375q-1.296875 0 -2.109375 -0.828125q-0.796875 -0.84375 -0.796875 -2.421875zm1.078125 0q0 1.1875 0.515625 1.78125q0.53125 0.59375 1.3125 0.59375q0.796875 0 1.3125 -0.59375q0.515625 -0.59375 0.515625 -1.8125q0 -1.15625 -0.53125 -1.75q-0.515625 -0.59375 -1.296875 -0.59375q-0.78125 0 -1.3125 0.59375q-0.515625 0.578125 -0.515625 1.78125zm5.986328 3.109375l0 -6.21875l0.9375 0l0 0.875q0.6875 -1.015625 1.984375 -1.015625q0.5625 0 1.03125 0.203125q0.484375 0.203125 0.71875 0.53125q0.234375 0.328125 0.328125 0.765625q0.046875 0.296875 0.046875 1.03125l0 3.828125l-1.046875 0l0 -3.78125q0 -0.65625 -0.125 -0.96875q-0.125 -0.3125 -0.4375 -0.5q-0.3125 -0.203125 -0.734375 -0.203125q-0.671875 0 -1.171875 0.4375q-0.484375 0.421875 -0.484375 1.609375l0 3.40625l-1.046875 0z" fill-rule="nonzero"/><path fill="#000000" fill-opacity="0.0" d="m240.00262 65.22835l124.50394 0l0 48.472443l-124.50394 0z" fill-rule="evenodd"/><path fill="#000000" d="m256.06512 82.73272l1.125 0.296875q-0.359375 1.390625 -1.28125 2.125q-0.921875 0.734375 -2.265625 0.734375q-1.390625 0 -2.265625 -0.5625q-0.875 -0.5625 -1.328125 -1.625q-0.453125 -1.078125 -0.453125 -2.3125q0 -1.34375 0.515625 -2.34375q0.515625 -1.0 1.453125 -1.515625q0.953125 -0.515625 2.09375 -0.515625q1.28125 0 2.15625 0.65625q0.890625 0.65625 1.234375 1.84375l-1.125 0.265625q-0.296875 -0.9375 -0.875 -1.359375q-0.5625 -0.4375 -1.421875 -0.4375q-0.984375 0 -1.65625 0.484375q-0.65625 0.46875 -0.9375 1.265625q-0.265625 0.796875 -0.265625 1.65625q0 1.09375 0.3125 1.90625q0.328125 0.8125 1.0 1.21875q0.671875 0.40625 1.46875 0.40625q0.953125 0 1.609375 -0.546875q0.671875 -0.546875 0.90625 -1.640625zm2.0097656 -0.09375q0 -1.734375 0.953125 -2.5625q0.796875 -0.6875 1.953125 -0.6875q1.28125 0 2.09375 0.84375q0.828125 0.828125 0.828125 2.3125q0 1.203125 -0.359375 1.890625q-0.359375 0.6875 -1.0625 1.078125q-0.6875 0.375 -1.5 0.375q-1.296875 0 -2.109375 -0.828125q-0.796875 -0.84375 -0.796875 -2.421875zm1.078125 0q0 1.1875 0.515625 1.78125q0.53125 0.59375 1.3125 0.59375q0.796875 0 1.3125 -0.59375q0.515625 -0.59375 0.515625 -1.8125q0 -1.15625 -0.53125 -1.75q-0.515625 -0.59375 -1.296875 -0.59375q-0.78125 0 -1.3125 0.59375q-0.515625 0.578125 -0.515625 1.78125zm10.017578 3.109375l0 -0.78125q-0.59375 0.921875 -1.734375 0.921875q-0.75 0 -1.375 -0.40625q-0.625 -0.421875 -0.96875 -1.15625q-0.34375 -0.734375 -0.34375 -1.6875q0 -0.921875 0.3125 -1.6875q0.3125 -0.765625 0.9375 -1.15625q0.625 -0.40625 1.390625 -0.40625q0.5625 0 1.0 0.234375q0.4375 0.234375 0.71875 0.609375l0 -3.078125l1.046875 0l0 8.59375l-0.984375 0zm-3.328125 -3.109375q0 1.203125 0.5 1.796875q0.5 0.578125 1.1875 0.578125q0.6875 0 1.171875 -0.5625q0.484375 -0.5625 0.484375 -1.71875q0 -1.28125 -0.5 -1.875q-0.484375 -0.59375 -1.203125 -0.59375q-0.703125 0 -1.171875 0.578125q-0.46875 0.5625 -0.46875 1.796875zm10.220703 1.109375l1.09375 0.125q-0.25 0.953125 -0.953125 1.484375q-0.703125 0.53125 -1.78125 0.53125q-1.359375 0 -2.171875 -0.84375q-0.796875 -0.84375 -0.796875 -2.359375q0 -1.5625 0.8125 -2.421875q0.8125 -0.875 2.09375 -0.875q1.25 0 2.03125 0.84375q0.796875 0.84375 0.796875 2.390625q0 0.09375 0 0.28125l-4.640625 0q0.0625 1.03125 0.578125 1.578125q0.515625 0.53125 1.296875 0.53125q0.578125 0 0.984375 -0.296875q0.421875 -0.3125 0.65625 -0.96875zm-3.453125 -1.703125l3.46875 0q-0.0625 -0.796875 -0.390625 -1.1875q-0.515625 -0.609375 -1.3125 -0.609375q-0.734375 0 -1.234375 0.484375q-0.484375 0.484375 -0.53125 1.3125zm9.0078125 4.21875l1.03125 0.15625q0.0625 0.46875 0.359375 0.6875q0.390625 0.296875 1.0625 0.296875q0.734375 0 1.125 -0.296875q0.40625 -0.296875 0.546875 -0.8125q0.09375 -0.328125 0.078125 -1.359375q-0.6875 0.8125 -1.71875 0.8125q-1.28125 0 -1.984375 -0.921875q-0.703125 -0.9375 -0.703125 -2.21875q0 -0.890625 0.3125 -1.640625q0.328125 -0.765625 0.9375 -1.171875q0.609375 -0.40625 1.4375 -0.40625q1.109375 0 1.828125 0.890625l0 -0.75l0.96875 0l0 5.375q0 1.453125 -0.296875 2.0625q-0.296875 0.609375 -0.9375 0.953125q-0.640625 0.359375 -1.578125 0.359375q-1.109375 0 -1.796875 -0.5q-0.6875 -0.5 -0.671875 -1.515625zm0.875 -3.734375q0 1.21875 0.484375 1.78125q0.484375 0.5625 1.21875 0.5625q0.734375 0 1.21875 -0.5625q0.5 -0.5625 0.5 -1.75q0 -1.140625 -0.515625 -1.71875q-0.5 -0.578125 -1.21875 -0.578125q-0.703125 0 -1.203125 0.578125q-0.484375 0.5625 -0.484375 1.6875zm10.251953 1.21875l1.09375 0.125q-0.25 0.953125 -0.953125 1.484375q-0.703125 0.53125 -1.78125 0.53125q-1.359375 0 -2.171875 -0.84375q-0.796875 -0.84375 -0.796875 -2.359375q0 -1.5625 0.8125 -2.421875q0.8125 -0.875 2.09375 -0.875q1.25 0 2.03125 0.84375q0.796875 0.84375 0.796875 2.390625q0 0.09375 0 0.28125l-4.640625 0q0.0625 1.03125 0.578125 1.578125q0.515625 0.53125 1.296875 0.53125q0.578125 0 0.984375 -0.296875q0.421875 -0.3125 0.65625 -0.96875zm-3.453125 -1.703125l3.46875 0q-0.0625 -0.796875 -0.390625 -1.1875q-0.515625 -0.609375 -1.3125 -0.609375q-0.734375 0 -1.234375 0.484375q-0.484375 0.484375 -0.53125 1.3125zm5.876953 3.703125l0 -6.21875l0.9375 0l0 0.875q0.6875 -1.015625 1.984375 -1.015625q0.5625 0 1.03125 0.203125q0.484375 0.203125 0.71875 0.53125q0.234375 0.328125 0.328125 0.765625q0.046875 0.296875 0.046875 1.03125l0 3.828125l-1.046875 0l0 -3.78125q0 -0.65625 -0.125 -0.96875q-0.125 -0.3125 -0.4375 -0.5q-0.3125 -0.203125 -0.734375 -0.203125q-0.671875 0 -1.171875 0.4375q-0.484375 0.421875 -0.484375 1.609375l0 3.40625l-1.046875 0zm10.923828 -2.0l1.09375 0.125q-0.25 0.953125 -0.953125 1.484375q-0.703125 0.53125 -1.78125 0.53125q-1.359375 0 -2.171875 -0.84375q-0.796875 -0.84375 -0.796875 -2.359375q0 -1.5625 0.8125 -2.421875q0.8125 -0.875 2.09375 -0.875q1.25 0 2.03125 0.84375q0.796875 0.84375 0.796875 2.390625q0 0.09375 0 0.28125l-4.640625 0q0.0625 1.03125 0.578125 1.578125q0.515625 0.53125 1.296875 0.53125q0.578125 0 0.984375 -0.296875q0.421875 -0.3125 0.65625 -0.96875zm-3.453125 -1.703125l3.46875 0q-0.0625 -0.796875 -0.390625 -1.1875q-0.515625 -0.609375 -1.3125 -0.609375q-0.734375 0 -1.234375 0.484375q-0.484375 0.484375 -0.53125 1.3125zm5.861328 3.703125l0 -6.21875l0.953125 0l0 0.9375q0.359375 -0.65625 0.65625 -0.859375q0.3125 -0.21875 0.6875 -0.21875q0.53125 0 1.078125 0.328125l-0.359375 0.984375q-0.390625 -0.234375 -0.765625 -0.234375q-0.359375 0 -0.640625 0.21875q-0.265625 0.203125 -0.375 0.578125q-0.1875 0.5625 -0.1875 1.21875l0 3.265625l-1.046875 0zm8.074219 -0.765625q-0.59375 0.5 -1.140625 0.703125q-0.53125 0.203125 -1.15625 0.203125q-1.03125 0 -1.578125 -0.5q-0.546875 -0.5 -0.546875 -1.28125q0 -0.453125 0.203125 -0.828125q0.203125 -0.390625 0.546875 -0.609375q0.34375 -0.234375 0.765625 -0.34375q0.296875 -0.09375 0.9375 -0.171875q1.265625 -0.140625 1.875 -0.359375q0 -0.21875 0 -0.265625q0 -0.65625 -0.296875 -0.921875q-0.40625 -0.34375 -1.203125 -0.34375q-0.734375 0 -1.09375 0.265625q-0.359375 0.25 -0.53125 0.90625l-1.03125 -0.140625q0.140625 -0.65625 0.46875 -1.0625q0.328125 -0.40625 0.9375 -0.625q0.609375 -0.21875 1.40625 -0.21875q0.796875 0 1.296875 0.1875q0.5 0.1875 0.734375 0.46875q0.234375 0.28125 0.328125 0.71875q0.046875 0.265625 0.046875 0.96875l0 1.40625q0 1.46875 0.0625 1.859375q0.078125 0.390625 0.28125 0.75l-1.109375 0q-0.15625 -0.328125 -0.203125 -0.765625zm-0.09375 -2.359375q-0.578125 0.234375 -1.71875 0.40625q-0.65625 0.09375 -0.921875 0.21875q-0.265625 0.109375 -0.421875 0.328125q-0.140625 0.21875 -0.140625 0.5q0 0.421875 0.3125 0.703125q0.328125 0.28125 0.9375 0.28125q0.609375 0 1.078125 -0.265625q0.484375 -0.265625 0.703125 -0.734375q0.171875 -0.359375 0.171875 -1.046875l0 -0.390625zm5.001953 2.1875l0.15625 0.921875q-0.453125 0.09375 -0.796875 0.09375q-0.578125 0 -0.890625 -0.171875q-0.3125 -0.1875 -0.453125 -0.484375q-0.125 -0.296875 -0.125 -1.25l0 -3.578125l-0.765625 0l0 -0.8125l0.765625 0l0 -1.546875l1.046875 -0.625l0 2.171875l1.0625 0l0 0.8125l-1.0625 0l0 3.640625q0 0.453125 0.046875 0.578125q0.0625 0.125 0.1875 0.203125q0.125 0.078125 0.359375 0.078125q0.1875 0 0.46875 -0.03125zm1.0371094 -6.4375l0 -1.21875l1.0625 0l0 1.21875l-1.0625 0zm0 7.375l0 -6.21875l1.0625 0l0 6.21875l-1.0625 0zm2.2753906 -3.109375q0 -1.734375 0.953125 -2.5625q0.796875 -0.6875 1.953125 -0.6875q1.28125 0 2.09375 0.84375q0.828125 0.828125 0.828125 2.3125q0 1.203125 -0.359375 1.890625q-0.359375 0.6875 -1.0625 1.078125q-0.6875 0.375 -1.5 0.375q-1.296875 0 -2.109375 -0.828125q-0.796875 -0.84375 -0.796875 -2.421875zm1.078125 0q0 1.1875 0.515625 1.78125q0.53125 0.59375 1.3125 0.59375q0.796875 0 1.3125 -0.59375q0.515625 -0.59375 0.515625 -1.8125q0 -1.15625 -0.53125 -1.75q-0.515625 -0.59375 -1.296875 -0.59375q-0.78125 0 -1.3125 0.59375q-0.515625 0.578125 -0.515625 1.78125zm5.986328 3.109375l0 -6.21875l0.9375 0l0 0.875q0.6875 -1.015625 1.984375 -1.015625q0.5625 0 1.03125 0.203125q0.484375 0.203125 0.71875 0.53125q0.234375 0.328125 0.328125 0.765625q0.046875 0.296875 0.046875 1.03125l0 3.828125l-1.046875 0l0 -3.78125q0 -0.65625 -0.125 -0.96875q-0.125 -0.3125 -0.4375 -0.5q-0.3125 -0.203125 -0.734375 -0.203125q-0.671875 0 -1.171875 0.4375q-0.484375 0.421875 -0.484375 1.609375l0 3.40625l-1.046875 0z" fill-rule="nonzero"/><path fill="#000000" d="m251.81512 102.679596q-0.875 -1.109375 -1.484375 -2.578125q-0.59375 -1.484375 -0.59375 -3.0625q0 -1.390625 0.4375 -2.671875q0.53125 -1.484375 1.640625 -2.953125l0.75 0q-0.703125 1.21875 -0.9375 1.734375q-0.359375 0.8125 -0.5625 1.6875q-0.25 1.09375 -0.25 2.203125q0 2.828125 1.75 5.640625l-0.75 0zm6.0429688 -4.8125l1.03125 0.140625q-0.171875 1.0625 -0.875 1.671875q-0.703125 0.609375 -1.71875 0.609375q-1.28125 0 -2.0625 -0.828125q-0.765625 -0.84375 -0.765625 -2.40625q0 -1.0 0.328125 -1.75q0.34375 -0.765625 1.015625 -1.140625q0.6875 -0.375 1.5 -0.375q1.0 0 1.640625 0.515625q0.65625 0.5 0.84375 1.453125l-1.03125 0.15625q-0.140625 -0.625 -0.515625 -0.9375q-0.375 -0.328125 -0.90625 -0.328125q-0.796875 0 -1.296875 0.578125q-0.5 0.5625 -0.5 1.796875q0 1.265625 0.484375 1.828125q0.484375 0.5625 1.25 0.5625q0.625 0 1.03125 -0.375q0.421875 -0.375 0.546875 -1.171875zm1.234375 2.28125l2.265625 -3.234375l-2.09375 -2.984375l1.3125 0l0.953125 1.453125q0.265625 0.421875 0.4375 0.703125q0.25 -0.390625 0.46875 -0.6875l1.046875 -1.46875l1.265625 0l-2.15625 2.921875l2.3125 3.296875l-1.28125 0l-1.28125 -1.9375l-0.34375 -0.515625l-1.640625 2.453125l-1.265625 0zm6.0 0l2.265625 -3.234375l-2.09375 -2.984375l1.3125 0l0.953125 1.453125q0.265625 0.421875 0.4375 0.703125q0.25 -0.390625 0.46875 -0.6875l1.046875 -1.46875l1.265625 0l-2.15625 2.921875l2.3125 3.296875l-1.28125 0l-1.28125 -1.9375l-0.34375 -0.515625l-1.640625 2.453125l-1.265625 0zm5.71875 2.390625l0 -0.765625l7.0 0l0 0.765625l-7.0 0zm8.626953 -2.390625l-0.984375 0l0 -8.59375l1.0625 0l0 3.0625q0.671875 -0.828125 1.703125 -0.828125q0.578125 0 1.078125 0.234375q0.515625 0.21875 0.84375 0.640625q0.34375 0.421875 0.53125 1.015625q0.1875 0.59375 0.1875 1.265625q0 1.59375 -0.796875 2.46875q-0.796875 0.875 -1.890625 0.875q-1.109375 0 -1.734375 -0.921875l0 0.78125zm-0.015625 -3.15625q0 1.109375 0.3125 1.609375q0.5 0.8125 1.34375 0.8125q0.6875 0 1.1875 -0.59375q0.515625 -0.59375 0.515625 -1.796875q0 -1.21875 -0.484375 -1.796875q-0.484375 -0.578125 -1.171875 -0.578125q-0.6875 0 -1.203125 0.609375q-0.5 0.59375 -0.5 1.734375zm9.798828 3.15625l0 -0.921875q-0.734375 1.0625 -1.984375 1.0625q-0.546875 0 -1.03125 -0.203125q-0.46875 -0.21875 -0.703125 -0.53125q-0.234375 -0.328125 -0.328125 -0.796875q-0.0625 -0.296875 -0.0625 -0.984375l0 -3.84375l1.0625 0l0 3.453125q0 0.8125 0.0625 1.109375q0.09375 0.40625 0.40625 0.65625q0.328125 0.234375 0.8125 0.234375q0.46875 0 0.875 -0.234375q0.421875 -0.25 0.59375 -0.671875q0.1875 -0.421875 0.1875 -1.21875l0 -3.328125l1.046875 0l0 6.21875l-0.9375 0zm2.5957031 -7.375l0 -1.21875l1.0625 0l0 1.21875l-1.0625 0zm0 7.375l0 -6.21875l1.0625 0l0 6.21875l-1.0625 0zm2.6347656 0l0 -8.59375l1.0625 0l0 8.59375l-1.0625 0zm6.7285156 0l0 -0.78125q-0.59375 0.921875 -1.734375 0.921875q-0.75 0 -1.375 -0.40625q-0.625 -0.421875 -0.96875 -1.15625q-0.34375 -0.734375 -0.34375 -1.6875q0 -0.921875 0.3125 -1.6875q0.3125 -0.765625 0.9375 -1.15625q0.625 -0.40625 1.390625 -0.40625q0.5625 0 1.0 0.234375q0.4375 0.234375 0.71875 0.609375l0 -3.078125l1.046875 0l0 8.59375l-0.984375 0zm-3.328125 -3.109375q0 1.203125 0.5 1.796875q0.5 0.578125 1.1875 0.578125q0.6875 0 1.171875 -0.5625q0.484375 -0.5625 0.484375 -1.71875q0 -1.28125 -0.5 -1.875q-0.484375 -0.59375 -1.203125 -0.59375q-0.703125 0 -1.171875 0.578125q-0.46875 0.5625 -0.46875 1.796875zm6.236328 3.109375l0 -1.203125l1.203125 0l0 1.203125q0 0.65625 -0.234375 1.0625q-0.234375 0.421875 -0.734375 0.640625l-0.296875 -0.453125q0.328125 -0.140625 0.484375 -0.4375q0.15625 -0.28125 0.1875 -0.8125l-0.609375 0zm10.652344 -2.0l1.09375 0.125q-0.25 0.953125 -0.953125 1.484375q-0.703125 0.53125 -1.78125 0.53125q-1.359375 0 -2.171875 -0.84375q-0.796875 -0.84375 -0.796875 -2.359375q0 -1.5625 0.8125 -2.421875q0.8125 -0.875 2.09375 -0.875q1.25 0 2.03125 0.84375q0.796875 0.84375 0.796875 2.390625q0 0.09375 0 0.28125l-4.640625 0q0.0625 1.03125 0.578125 1.578125q0.515625 0.53125 1.296875 0.53125q0.578125 0 0.984375 -0.296875q0.421875 -0.3125 0.65625 -0.96875zm-3.453125 -1.703125l3.46875 0q-0.0625 -0.796875 -0.390625 -1.1875q-0.515625 -0.609375 -1.3125 -0.609375q-0.734375 0 -1.234375 0.484375q-0.484375 0.484375 -0.53125 1.3125zm8.173828 2.765625l0.15625 0.921875q-0.453125 0.09375 -0.796875 0.09375q-0.578125 0 -0.890625 -0.171875q-0.3125 -0.1875 -0.453125 -0.484375q-0.125 -0.296875 -0.125 -1.25l0 -3.578125l-0.765625 0l0 -0.8125l0.765625 0l0 -1.546875l1.046875 -0.625l0 2.171875l1.0625 0l0 0.8125l-1.0625 0l0 3.640625q0 0.453125 0.046875 0.578125q0.0625 0.125 0.1875 0.203125q0.125 0.078125 0.359375 0.078125q0.1875 0 0.46875 -0.03125zm5.0996094 -1.34375l1.03125 0.140625q-0.171875 1.0625 -0.875 1.671875q-0.703125 0.609375 -1.71875 0.609375q-1.28125 0 -2.0625 -0.828125q-0.765625 -0.84375 -0.765625 -2.40625q0 -1.0 0.328125 -1.75q0.34375 -0.765625 1.015625 -1.140625q0.6875 -0.375 1.5 -0.375q1.0 0 1.640625 0.515625q0.65625 0.5 0.84375 1.453125l-1.03125 0.15625q-0.140625 -0.625 -0.515625 -0.9375q-0.375 -0.328125 -0.90625 -0.328125q-0.796875 0 -1.296875 0.578125q-0.5 0.5625 -0.5 1.796875q0 1.265625 0.484375 1.828125q0.484375 0.5625 1.25 0.5625q0.625 0 1.03125 -0.375q0.421875 -0.375 0.546875 -1.171875zm2.234375 2.28125l0 -1.203125l1.203125 0l0 1.203125l-1.203125 0zm3.7246094 2.53125l-0.75 0q1.75 -2.8125 1.75 -5.640625q0 -1.09375 -0.25 -2.1875q-0.203125 -0.875 -0.5625 -1.6875q-0.234375 -0.515625 -0.9375 -1.75l0.75 0q1.09375 1.46875 1.625 2.953125q0.453125 1.28125 0.453125 2.671875q0 1.578125 -0.609375 3.0625q-0.609375 1.46875 -1.46875 2.578125z" fill-rule="nonzero"/><path fill="#000000" fill-opacity="0.0" d="m200.4462 165.41733l79.1181 0.09448242" fill-rule="evenodd"/><path stroke="#000000" stroke-width="1.0" stroke-linejoin="round" stroke-linecap="butt" stroke-dasharray="4.0,3.0" d="m203.87328 165.42142l72.26393 0.08630371" fill-rule="evenodd"/><path fill="#000000" stroke="#000000" stroke-width="1.0" stroke-linecap="butt" d="m203.87328 165.42142l1.1259308 -1.1232452l-3.0911102 1.1208954l3.0884247 1.1282806z" fill-rule="evenodd"/><path fill="#000000" stroke="#000000" stroke-width="1.0" stroke-linecap="butt" d="m276.1372 165.50772l-1.1259155 1.12323l3.0911255 -1.1208801l-3.08844 -1.1282806z" fill-rule="evenodd"/><path fill="#000000" fill-opacity="0.0" d="m200.45145 109.661415l79.40158 0l0 63.02363l-79.40158 0z" fill-rule="evenodd"/><path fill="#000000" d="m231.93837 127.15017l1.140625 0.171875q-0.546875 1.4843674 -1.578125 2.2499924q-1.03125 0.75 -2.3125 0.75q-1.5625 0 -2.484375 -0.953125q-0.90625 -0.953125 -0.90625 -2.7343674q0 -2.3125 1.390625 -3.84375q1.25 -1.34375 3.09375 -1.34375q1.359375 0 2.203125 0.734375q0.84375 0.734375 0.984375 1.96875l-1.078125 0.09375q-0.15625 -0.9375 -0.6875 -1.390625q-0.53125 -0.453125 -1.375 -0.453125q-1.578125 0 -2.546875 1.390625q-0.84375 1.203125 -0.84375 2.875q0 1.3125 0.640625 2.0156174q0.65625 0.703125 1.703125 0.703125q0.890625 0 1.609375 -0.578125q0.71875 -0.59375 1.046875 -1.6562424zm4.0859375 3.0312424l4.859375 -8.593742l1.359375 0l1.421875 8.593742l-1.125 0l-0.40625 -2.4687424l-3.484375 0l-1.375 2.4687424l-1.25 0zm3.125 -3.3593674l2.84375 0l-0.34375 -2.15625q-0.1875 -1.28125 -0.234375 -2.140625q-0.296875 0.734375 -0.859375 1.75l-1.40625 2.546875zm5.6289062 3.3593674l1.8125 -8.593742l2.65625 0q0.71875 0 1.078125 0.0625q0.578125 0.09375 0.96875 0.34375q0.390625 0.25 0.609375 0.6875q0.21875 0.421875 0.21875 0.953125q0 0.703125 -0.390625 1.25q-0.390625 0.53125 -1.1875 0.8125q0.6875 0.234375 1.03125 0.703125q0.359375 0.453125 0.359375 1.0625q0 0.7031174 -0.421875 1.3593674q-0.40625 0.65625 -1.078125 1.015625q-0.65625 0.34375 -1.484375 0.34375l-4.171875 0zm2.1875 -4.9218674l1.734375 0q1.25 0 1.796875 -0.390625q0.546875 -0.40625 0.546875 -1.171875q0 -0.359375 -0.171875 -0.625q-0.15625 -0.265625 -0.453125 -0.375q-0.28125 -0.125 -1.0625 -0.125l-1.828125 0l-0.5625 2.6875zm-0.828125 3.9531174l1.953125 0q0.78125 0 1.046875 -0.0625q0.546875 -0.09375 0.890625 -0.3125q0.34375 -0.234375 0.53125 -0.59375q0.203125 -0.37499237 0.203125 -0.7812424q0 -0.59375 -0.390625 -0.90625q-0.375 -0.3125 -1.4375 -0.3125l-2.171875 0l-0.625 2.9687424zm6.8164062 0.96875l1.796875 -8.593742l1.140625 0l-1.796875 8.593742l-1.140625 0z" fill-rule="nonzero"/><path fill="#000000" d="m215.40321 147.11267q-0.921875 -2.015625 -0.921875 -4.15625q0 -1.40625 0.375 -2.625q0.375 -1.234375 1.125 -2.421875q0.515625 -0.796875 1.609375 -2.0625l0.828125 0q-0.6875 0.734375 -1.453125 2.0625q-0.75 1.328125 -1.109375 2.609375q-0.34375 1.28125 -0.34375 2.578125q0 1.9375 0.671875 4.015625l-0.78125 0zm2.4648438 -2.53125l1.78125 -8.59375l1.0625 0l-0.6875 3.296875q0.59375 -0.5625 1.09375 -0.8125q0.515625 -0.25 1.0625 -0.25q0.765625 0 1.1875 0.40625q0.4375 0.40625 0.4375 1.078125q0 0.328125 -0.1875 1.203125l-0.765625 3.671875l-1.0625 0l0.796875 -3.765625q0.171875 -0.828125 0.171875 -1.03125q0 -0.3125 -0.21875 -0.5q-0.203125 -0.1875 -0.609375 -0.1875q-0.578125 0 -1.09375 0.296875q-0.515625 0.296875 -0.8125 0.828125q-0.296875 0.515625 -0.546875 1.6875l-0.5625 2.671875l-1.046875 0zm8.173828 -7.390625l0.25 -1.203125l1.0625 0l-0.265625 1.203125l-1.046875 0zm-1.546875 7.390625l1.296875 -6.21875l1.0625 0l-1.296875 6.21875l-1.0625 0zm6.9003906 -0.90625q-0.90625 1.046875 -1.890625 1.046875q-0.890625 0 -1.484375 -0.65625q-0.578125 -0.65625 -0.578125 -1.890625q0 -1.140625 0.453125 -2.078125q0.46875 -0.9375 1.171875 -1.40625q0.703125 -0.46875 1.40625 -0.46875q1.15625 0 1.75 1.109375l0.703125 -3.34375l1.046875 0l-1.78125 8.59375l-0.984375 0l0.1875 -0.90625zm-2.90625 -1.703125q0 0.65625 0.125 1.03125q0.140625 0.375 0.4375 0.625q0.3125 0.25 0.75 0.25q0.71875 0 1.3125 -0.75q0.78125 -1.0 0.78125 -2.46875q0 -0.734375 -0.390625 -1.140625q-0.390625 -0.421875 -0.96875 -0.421875q-0.375 0 -0.703125 0.171875q-0.3125 0.15625 -0.625 0.5625q-0.296875 0.40625 -0.515625 1.046875q-0.203125 0.625 -0.203125 1.09375zm9.580078 1.703125q-0.90625 1.046875 -1.890625 1.046875q-0.890625 0 -1.484375 -0.65625q-0.578125 -0.65625 -0.578125 -1.890625q0 -1.140625 0.453125 -2.078125q0.46875 -0.9375 1.171875 -1.40625q0.703125 -0.46875 1.40625 -0.46875q1.15625 0 1.75 1.109375l0.703125 -3.34375l1.046875 0l-1.78125 8.59375l-0.984375 0l0.1875 -0.90625zm-2.90625 -1.703125q0 0.65625 0.125 1.03125q0.140625 0.375 0.4375 0.625q0.3125 0.25 0.75 0.25q0.71875 0 1.3125 -0.75q0.78125 -1.0 0.78125 -2.46875q0 -0.734375 -0.390625 -1.140625q-0.390625 -0.421875 -0.96875 -0.421875q-0.375 0 -0.703125 0.171875q-0.3125 0.15625 -0.625 0.5625q-0.296875 0.40625 -0.515625 1.046875q-0.203125 0.625 -0.203125 1.09375zm9.955078 0.5l1.03125 0.09375q-0.21875 0.765625 -1.03125 1.46875q-0.796875 0.6875 -1.890625 0.6875q-0.703125 0 -1.28125 -0.3125q-0.578125 -0.328125 -0.875 -0.9375q-0.296875 -0.609375 -0.296875 -1.390625q0 -1.015625 0.46875 -1.96875q0.46875 -0.96875 1.21875 -1.421875q0.75 -0.46875 1.625 -0.46875q1.109375 0 1.765625 0.6875q0.671875 0.6875 0.671875 1.890625q0 0.453125 -0.078125 0.9375l-4.578125 0q-0.03125 0.171875 -0.03125 0.328125q0 0.875 0.40625 1.328125q0.40625 0.453125 0.984375 0.453125q0.546875 0 1.0625 -0.34375q0.53125 -0.359375 0.828125 -1.03125zm-3.078125 -1.546875l3.484375 0q0.015625 -0.171875 0.015625 -0.234375q0 -0.796875 -0.40625 -1.21875q-0.390625 -0.421875 -1.015625 -0.421875q-0.6875 0 -1.25 0.46875q-0.5625 0.46875 -0.828125 1.40625zm5.189453 3.65625l1.296875 -6.21875l0.953125 0l-0.21875 1.078125q0.625 -0.640625 1.171875 -0.921875q0.546875 -0.296875 1.109375 -0.296875q0.75 0 1.171875 0.40625q0.4375 0.40625 0.4375 1.09375q0 0.34375 -0.140625 1.09375l-0.796875 3.765625l-1.0625 0l0.828125 -3.9375q0.125 -0.578125 0.125 -0.859375q0 -0.3125 -0.21875 -0.5q-0.203125 -0.1875 -0.609375 -0.1875q-0.8125 0 -1.453125 0.59375q-0.640625 0.578125 -0.9375 2.0l-0.609375 2.890625l-1.046875 0zm12.476547 -0.859375l-0.171875 0.859375q-0.375 0.109375 -0.734375 0.109375q-0.640625 0 -1.015625 -0.3125q-0.28125 -0.234375 -0.28125 -0.640625q0 -0.203125 0.15625 -0.9375l0.75 -3.625l-0.828125 0l0.171875 -0.8125l0.828125 0l0.328125 -1.53125l1.203125 -0.734375l-0.46875 2.265625l1.046875 0l-0.171875 0.8125l-1.046875 0l-0.71875 3.4375q-0.140625 0.65625 -0.140625 0.796875q0 0.1875 0.109375 0.28125q0.109375 0.09375 0.359375 0.09375q0.359375 0 0.625 -0.0625zm1.0527344 -1.5q0 -1.828125 1.0625 -3.015625q0.890625 -0.984375 2.328125 -0.984375q1.125 0 1.8125 0.703125q0.6875 0.703125 0.6875 1.890625q0 1.078125 -0.4375 2.0q-0.4375 0.921875 -1.234375 1.421875q-0.796875 0.484375 -1.6875 0.484375q-0.71875 0 -1.3125 -0.3125q-0.59375 -0.3125 -0.90625 -0.875q-0.3125 -0.578125 -0.3125 -1.3125zm1.046875 -0.109375q0 0.875 0.421875 1.328125q0.421875 0.453125 1.078125 0.453125q0.34375 0 0.671875 -0.125q0.34375 -0.140625 0.625 -0.421875q0.28125 -0.28125 0.484375 -0.640625q0.203125 -0.359375 0.328125 -0.78125q0.1875 -0.578125 0.1875 -1.109375q0 -0.84375 -0.4375 -1.3125q-0.421875 -0.46875 -1.0625 -0.46875q-0.5 0 -0.90625 0.25q-0.40625 0.234375 -0.75 0.6875q-0.328125 0.453125 -0.484375 1.0625q-0.15625 0.609375 -0.15625 1.078125z" fill-rule="nonzero"/><path fill="#000000" d="m228.12294 157.85641q-1.109375 1.265625 -2.28125 1.265625q-0.71875 0 -1.171875 -0.40625q-0.4375 -0.421875 -0.4375 -1.015625q0 -0.390625 0.203125 -1.34375l0.75 -3.59375l1.0625 0l-0.84375 3.96875q-0.09375 0.5 -0.09375 0.78125q0 0.34375 0.203125 0.546875q0.21875 0.1875 0.640625 0.1875q0.4375 0 0.859375 -0.203125q0.4375 -0.21875 0.734375 -0.59375q0.3125 -0.375 0.5 -0.875q0.140625 -0.3125 0.296875 -1.125l0.5625 -2.6875l1.0625 0l-1.296875 6.21875l-0.984375 0l0.234375 -1.125zm2.5332031 -1.0l1.0625 -0.0625q0 0.453125 0.140625 0.78125q0.140625 0.3125 0.515625 0.515625q0.375 0.203125 0.875 0.203125q0.703125 0 1.046875 -0.28125q0.359375 -0.28125 0.359375 -0.65625q0 -0.28125 -0.203125 -0.515625q-0.21875 -0.25 -1.0625 -0.609375q-0.84375 -0.359375 -1.078125 -0.515625q-0.390625 -0.234375 -0.59375 -0.5625q-0.1875 -0.328125 -0.1875 -0.75q0 -0.734375 0.578125 -1.25q0.59375 -0.53125 1.640625 -0.53125q1.171875 0 1.78125 0.546875q0.625 0.53125 0.640625 1.421875l-1.03125 0.0625q-0.03125 -0.5625 -0.40625 -0.890625q-0.375 -0.328125 -1.0625 -0.328125q-0.546875 0 -0.859375 0.25q-0.296875 0.25 -0.296875 0.546875q0 0.296875 0.265625 0.515625q0.171875 0.15625 0.90625 0.46875q1.21875 0.53125 1.53125 0.828125q0.515625 0.5 0.515625 1.1875q0 0.46875 -0.296875 0.921875q-0.28125 0.4375 -0.859375 0.703125q-0.578125 0.265625 -1.375 0.265625q-1.078125 0 -1.828125 -0.53125q-0.765625 -0.53125 -0.71875 -1.734375zm10.46875 0.015625l1.03125 0.09375q-0.21875 0.765625 -1.03125 1.46875q-0.796875 0.6875 -1.890625 0.6875q-0.703125 0 -1.28125 -0.3125q-0.578125 -0.328125 -0.875 -0.9375q-0.296875 -0.609375 -0.296875 -1.390625q0 -1.015625 0.46875 -1.96875q0.46875 -0.96875 1.21875 -1.421875q0.75 -0.46875 1.625 -0.46875q1.109375 0 1.765625 0.6875q0.671875 0.6875 0.671875 1.890625q0 0.453125 -0.078125 0.9375l-4.578125 0q-0.03125 0.171875 -0.03125 0.328125q0 0.875 0.40625 1.328125q0.40625 0.453125 0.984375 0.453125q0.546875 0 1.0625 -0.34375q0.53125 -0.359375 0.828125 -1.03125zm-3.078125 -1.546875l3.484375 0q0.015625 -0.171875 0.015625 -0.234375q0 -0.796875 -0.40625 -1.21875q-0.390625 -0.421875 -1.015625 -0.421875q-0.6875 0 -1.25 0.46875q-0.5625 0.46875 -0.828125 1.40625zm5.189453 3.65625l1.296875 -6.21875l0.9375 0l-0.265625 1.265625q0.484375 -0.71875 0.9375 -1.0625q0.46875 -0.34375 0.9375 -0.34375q0.328125 0 0.78125 0.21875l-0.4375 0.984375q-0.265625 -0.1875 -0.59375 -0.1875q-0.5625 0 -1.15625 0.625q-0.578125 0.609375 -0.90625 2.21875l-0.53125 2.5l-1.0 0zm4.0898438 -2.125l1.0625 -0.0625q0 0.453125 0.140625 0.78125q0.140625 0.3125 0.515625 0.515625q0.375 0.203125 0.875 0.203125q0.703125 0 1.046875 -0.28125q0.359375 -0.28125 0.359375 -0.65625q0 -0.28125 -0.203125 -0.515625q-0.21875 -0.25 -1.0625 -0.609375q-0.84375 -0.359375 -1.078125 -0.515625q-0.390625 -0.234375 -0.59375 -0.5625q-0.1875 -0.328125 -0.1875 -0.75q0 -0.734375 0.578125 -1.25q0.59375 -0.53125 1.640625 -0.53125q1.171875 0 1.78125 0.546875q0.625 0.53125 0.640625 1.421875l-1.03125 0.0625q-0.03125 -0.5625 -0.40625 -0.890625q-0.375 -0.328125 -1.0625 -0.328125q-0.546875 0 -0.859375 0.25q-0.296875 0.25 -0.296875 0.546875q0 0.296875 0.265625 0.515625q0.171875 0.15625 0.90625 0.46875q1.21875 0.53125 1.53125 0.828125q0.515625 0.5 0.515625 1.1875q0 0.46875 -0.296875 0.921875q-0.28125 0.4375 -0.859375 0.703125q-0.578125 0.265625 -1.375 0.265625q-1.078125 0 -1.828125 -0.53125q-0.765625 -0.53125 -0.71875 -1.734375zm7.875 -6.609375q0.93748474 2.015625 0.93748474 4.140625q0 1.421875 -0.37498474 2.640625q-0.375 1.21875 -1.140625 2.421875q-0.5 0.796875 -1.609375 2.0625l-0.828125 0q0.6875 -0.75 1.453125 -2.078125q0.765625 -1.328125 1.109375 -2.609375q0.34375 -1.28125 0.34375 -2.578125q0 -1.9375 -0.671875 -4.0l0.78125 0z" fill-rule="nonzero"/></g></svg>